<?xml version="1.0" encoding="UTF-8"?>
<svg xmlns="http://www.w3.org/2000/svg" viewBox="0 0 1200 520" font-family="monospace" font-size="12">
  <rect width="1200" height="520" fill="#ffffff"/>
  <text x="60" y="24" font-size="15" font-weight="bold">cascade_position - C: 小惯量大阻尼 | 纯PID vs 含前馈</text>
  <text x="60" y="44" font-size="11" fill="#555">纯PID: 上升=0.33s 调节=0.46s 超调=1.55%</text>
  <text x="60" y="60" font-size="11" fill="#088">含前馈: 上升=0.33s 调节=0.46s 超调=1.55%</text>
  <text x="1170" y="44" text-anchor="end" font-size="12" fill="#080">上升改善: 0.0%</text>
  <text x="1170" y="60" text-anchor="end" font-size="12" fill="#080">调节改善: 0.0%</text>
  <line x1="60" y1="70" x2="60" y2="470" stroke="#333"/>
  <line x1="60" y1="470" x2="1170" y2="470" stroke="#333"/>
  <line x1="60" y1="70" x2="1170" y2="70" stroke="#eee"/><text x="55" y="74" text-anchor="end" font-size="10" fill="#555">0.89</text><line x1="60" y1="170" x2="1170" y2="170" stroke="#eee"/><text x="55" y="174" text-anchor="end" font-size="10" fill="#555">0.65</text><line x1="60" y1="270" x2="1170" y2="270" stroke="#eee"/><text x="55" y="274" text-anchor="end" font-size="10" fill="#555">0.41</text><line x1="60" y1="370" x2="1170" y2="370" stroke="#eee"/><text x="55" y="374" text-anchor="end" font-size="10" fill="#555">0.16</text><line x1="60" y1="470" x2="1170" y2="470" stroke="#eee"/><text x="55" y="474" text-anchor="end" font-size="10" fill="#555">-0.08</text>
  <text x="60" y="485" text-anchor="middle" font-size="10" fill="#555">0.00</text><text x="282" y="485" text-anchor="middle" font-size="10" fill="#555">1.00</text><text x="504" y="485" text-anchor="middle" font-size="10" fill="#555">2.00</text><text x="726" y="485" text-anchor="middle" font-size="10" fill="#555">3.00</text><text x="948" y="485" text-anchor="middle" font-size="10" fill="#555">4.00</text><text x="1170" y="485" text-anchor="middle" font-size="10" fill="#555">5.00</text>
  <path d="M 60.00 436.09 L 62.22 108.41 L 64.44 108.41 L 66.66 108.41 L 68.88 108.41 L 71.10 108.41 L 73.32 108.41 L 75.54 108.41 L 77.76 108.41 L 79.98 108.41 L 82.20 108.41 L 84.42 108.41 L 86.64 108.41 L 88.86 108.41 L 91.08 108.41 L 93.30 108.41 L 95.52 108.41 L 97.74 108.41 L 99.96 108.41 L 102.18 108.41 L 104.40 108.41 L 106.62 108.41 L 108.84 108.41 L 111.06 108.41 L 113.28 108.41 L 115.50 108.41 L 117.72 108.41 L 119.94 108.41 L 122.16 108.41 L 124.38 108.41 L 126.60 108.41 L 128.82 108.41 L 131.04 108.41 L 133.26 108.41 L 135.48 108.41 L 137.70 108.41 L 139.92 108.41 L 142.14 108.41 L 144.36 108.41 L 146.58 108.41 L 148.80 108.41 L 151.02 108.41 L 153.24 108.41 L 155.46 108.41 L 157.68 108.41 L 159.90 108.41 L 162.12 108.41 L 164.34 108.41 L 166.56 108.41 L 168.78 108.41 L 171.00 108.41 L 173.22 108.41 L 175.44 108.41 L 177.66 108.41 L 179.88 108.41 L 182.10 108.41 L 184.32 108.41 L 186.54 108.41 L 188.76 108.41 L 190.98 108.41 L 193.20 108.41 L 195.42 108.41 L 197.64 108.41 L 199.86 108.41 L 202.08 108.41 L 204.30 108.41 L 206.52 108.41 L 208.74 108.41 L 210.96 108.41 L 213.18 108.41 L 215.40 108.41 L 217.62 108.41 L 219.84 108.41 L 222.06 108.41 L 224.28 108.41 L 226.50 108.41 L 228.72 108.41 L 230.94 108.41 L 233.16 108.41 L 235.38 108.41 L 237.60 108.41 L 239.82 108.41 L 242.04 108.41 L 244.26 108.41 L 246.48 108.41 L 248.70 108.41 L 250.92 108.41 L 253.14 108.41 L 255.36 108.41 L 257.58 108.41 L 259.80 108.41 L 262.02 108.41 L 264.24 108.41 L 266.46 108.41 L 268.68 108.41 L 270.90 108.41 L 273.12 108.41 L 275.34 108.41 L 277.56 108.41 L 279.78 108.41 L 282.00 108.41 L 284.22 108.41 L 286.44 108.41 L 288.66 108.41 L 290.88 108.41 L 293.10 108.41 L 295.32 108.41 L 297.54 108.41 L 299.76 108.41 L 301.98 108.41 L 304.20 108.41 L 306.42 108.41 L 308.64 108.41 L 310.86 108.41 L 313.08 108.41 L 315.30 108.41 L 317.52 108.41 L 319.74 108.41 L 321.96 108.41 L 324.18 108.41 L 326.40 108.41 L 328.62 108.41 L 330.84 108.41 L 333.06 108.41 L 335.28 108.41 L 337.50 108.41 L 339.72 108.41 L 341.94 108.41 L 344.16 108.41 L 346.38 108.41 L 348.60 108.41 L 350.82 108.41 L 353.04 108.41 L 355.26 108.41 L 357.48 108.41 L 359.70 108.41 L 361.92 108.41 L 364.14 108.41 L 366.36 108.41 L 368.58 108.41 L 370.80 108.41 L 373.02 108.41 L 375.24 108.41 L 377.46 108.41 L 379.68 108.41 L 381.90 108.41 L 384.12 108.41 L 386.34 108.41 L 388.56 108.41 L 390.78 108.41 L 393.00 108.41 L 395.22 108.41 L 397.44 108.41 L 399.66 108.41 L 401.88 108.41 L 404.10 108.41 L 406.32 108.41 L 408.54 108.41 L 410.76 108.41 L 412.98 108.41 L 415.20 108.41 L 417.42 108.41 L 419.64 108.41 L 421.86 108.41 L 424.08 108.41 L 426.30 108.41 L 428.52 108.41 L 430.74 108.41 L 432.96 108.41 L 435.18 108.41 L 437.40 108.41 L 439.62 108.41 L 441.84 108.41 L 444.06 108.41 L 446.28 108.41 L 448.50 108.41 L 450.72 108.41 L 452.94 108.41 L 455.16 108.41 L 457.38 108.41 L 459.60 108.41 L 461.82 108.41 L 464.04 108.41 L 466.26 108.41 L 468.48 108.41 L 470.70 108.41 L 472.92 108.41 L 475.14 108.41 L 477.36 108.41 L 479.58 108.41 L 481.80 108.41 L 484.02 108.41 L 486.24 108.41 L 488.46 108.41 L 490.68 108.41 L 492.90 108.41 L 495.12 108.41 L 497.34 108.41 L 499.56 108.41 L 501.78 108.41 L 504.00 108.41 L 506.22 108.41 L 508.44 108.41 L 510.66 108.41 L 512.88 108.41 L 515.10 108.41 L 517.32 108.41 L 519.54 108.41 L 521.76 108.41 L 523.98 108.41 L 526.20 108.41 L 528.42 108.41 L 530.64 108.41 L 532.86 108.41 L 535.08 108.41 L 537.30 108.41 L 539.52 108.41 L 541.74 108.41 L 543.96 108.41 L 546.18 108.41 L 548.40 108.41 L 550.62 108.41 L 552.84 108.41 L 555.06 108.41 L 557.28 108.41 L 559.50 108.41 L 561.72 108.41 L 563.94 108.41 L 566.16 108.41 L 568.38 108.41 L 570.60 108.41 L 572.82 108.41 L 575.04 108.41 L 577.26 108.41 L 579.48 108.41 L 581.70 108.41 L 583.92 108.41 L 586.14 108.41 L 588.36 108.41 L 590.58 108.41 L 592.80 108.41 L 595.02 108.41 L 597.24 108.41 L 599.46 108.41 L 601.68 108.41 L 603.90 108.41 L 606.12 108.41 L 608.34 108.41 L 610.56 108.41 L 612.78 108.41 L 615.00 108.41 L 617.22 108.41 L 619.44 108.41 L 621.66 108.41 L 623.88 108.41 L 626.10 108.41 L 628.32 108.41 L 630.54 108.41 L 632.76 108.41 L 634.98 108.41 L 637.20 108.41 L 639.42 108.41 L 641.64 108.41 L 643.86 108.41 L 646.08 108.41 L 648.30 108.41 L 650.52 108.41 L 652.74 108.41 L 654.96 108.41 L 657.18 108.41 L 659.40 108.41 L 661.62 108.41 L 663.84 108.41 L 666.06 108.41 L 668.28 108.41 L 670.50 108.41 L 672.72 108.41 L 674.94 108.41 L 677.16 108.41 L 679.38 108.41 L 681.60 108.41 L 683.82 108.41 L 686.04 108.41 L 688.26 108.41 L 690.48 108.41 L 692.70 108.41 L 694.92 108.41 L 697.14 108.41 L 699.36 108.41 L 701.58 108.41 L 703.80 108.41 L 706.02 108.41 L 708.24 108.41 L 710.46 108.41 L 712.68 108.41 L 714.90 108.41 L 717.12 108.41 L 719.34 108.41 L 721.56 108.41 L 723.78 108.41 L 726.00 108.41 L 728.22 108.41 L 730.44 108.41 L 732.66 108.41 L 734.88 108.41 L 737.10 108.41 L 739.32 108.41 L 741.54 108.41 L 743.76 108.41 L 745.98 108.41 L 748.20 108.41 L 750.42 108.41 L 752.64 108.41 L 754.86 108.41 L 757.08 108.41 L 759.30 108.41 L 761.52 108.41 L 763.74 108.41 L 765.96 108.41 L 768.18 108.41 L 770.40 108.41 L 772.62 108.41 L 774.84 108.41 L 777.06 108.41 L 779.28 108.41 L 781.50 108.41 L 783.72 108.41 L 785.94 108.41 L 788.16 108.41 L 790.38 108.41 L 792.60 108.41 L 794.82 108.41 L 797.04 108.41 L 799.26 108.41 L 801.48 108.41 L 803.70 108.41 L 805.92 108.41 L 808.14 108.41 L 810.36 108.41 L 812.58 108.41 L 814.80 108.41 L 817.02 108.41 L 819.24 108.41 L 821.46 108.41 L 823.68 108.41 L 825.90 108.41 L 828.12 108.41 L 830.34 108.41 L 832.56 108.41 L 834.78 108.41 L 837.00 108.41 L 839.22 108.41 L 841.44 108.41 L 843.66 108.41 L 845.88 108.41 L 848.10 108.41 L 850.32 108.41 L 852.54 108.41 L 854.76 108.41 L 856.98 108.41 L 859.20 108.41 L 861.42 108.41 L 863.64 108.41 L 865.86 108.41 L 868.08 108.41 L 870.30 108.41 L 872.52 108.41 L 874.74 108.41 L 876.96 108.41 L 879.18 108.41 L 881.40 108.41 L 883.62 108.41 L 885.84 108.41 L 888.06 108.41 L 890.28 108.41 L 892.50 108.41 L 894.72 108.41 L 896.94 108.41 L 899.16 108.41 L 901.38 108.41 L 903.60 108.41 L 905.82 108.41 L 908.04 108.41 L 910.26 108.41 L 912.48 108.41 L 914.70 108.41 L 916.92 108.41 L 919.14 108.41 L 921.36 108.41 L 923.58 108.41 L 925.80 108.41 L 928.02 108.41 L 930.24 108.41 L 932.46 108.41 L 934.68 108.41 L 936.90 108.41 L 939.12 108.41 L 941.34 108.41 L 943.56 108.41 L 945.78 108.41 L 948.00 108.41 L 950.22 108.41 L 952.44 108.41 L 954.66 108.41 L 956.88 108.41 L 959.10 108.41 L 961.32 108.41 L 963.54 108.41 L 965.76 108.41 L 967.98 108.41 L 970.20 108.41 L 972.42 108.41 L 974.64 108.41 L 976.86 108.41 L 979.08 108.41 L 981.30 108.41 L 983.52 108.41 L 985.74 108.41 L 987.96 108.41 L 990.18 108.41 L 992.40 108.41 L 994.62 108.41 L 996.84 108.41 L 999.06 108.41 L 1001.28 108.41 L 1003.50 108.41 L 1005.72 108.41 L 1007.94 108.41 L 1010.16 108.41 L 1012.38 108.41 L 1014.60 108.41 L 1016.82 108.41 L 1019.04 108.41 L 1021.26 108.41 L 1023.48 108.41 L 1025.70 108.41 L 1027.92 108.41 L 1030.14 108.41 L 1032.36 108.41 L 1034.58 108.41 L 1036.80 108.41 L 1039.02 108.41 L 1041.24 108.41 L 1043.46 108.41 L 1045.68 108.41 L 1047.90 108.41 L 1050.12 108.41 L 1052.34 108.41 L 1054.56 108.41 L 1056.78 108.41 L 1059.00 108.41 L 1061.22 108.41 L 1063.44 108.41 L 1065.66 108.41 L 1067.88 108.41 L 1070.10 108.41 L 1072.32 108.41 L 1074.54 108.41 L 1076.76 108.41 L 1078.98 108.41 L 1081.20 108.41 L 1083.42 108.41 L 1085.64 108.41 L 1087.86 108.41 L 1090.08 108.41 L 1092.30 108.41 L 1094.52 108.41 L 1096.74 108.41 L 1098.96 108.41 L 1101.18 108.41 L 1103.40 108.41 L 1105.62 108.41 L 1107.84 108.41 L 1110.06 108.41 L 1112.28 108.41 L 1114.50 108.41 L 1116.72 108.41 L 1118.94 108.41 L 1121.16 108.41 L 1123.38 108.41 L 1125.60 108.41 L 1127.82 108.41 L 1130.04 108.41 L 1132.26 108.41 L 1134.48 108.41 L 1136.70 108.41 L 1138.92 108.41 L 1141.14 108.41 L 1143.36 108.41 L 1145.58 108.41 L 1147.80 108.41 L 1150.02 108.41 L 1152.24 108.41 L 1154.46 108.41 L 1156.68 108.41 L 1158.90 108.41 L 1161.12 108.41 L 1163.34 108.41 L 1165.56 108.41 L 1167.78 108.41 L 1170.00 108.41" fill="none" stroke="#888" stroke-width="1.5" stroke-dasharray="4 3"/>
  <path d="M 60.00 436.67 L 62.22 436.34 L 64.44 419.24 L 66.66 400.52 L 68.88 382.51 L 71.10 365.07 L 73.32 349.34 L 75.54 334.44 L 77.76 320.60 L 79.98 306.56 L 82.20 294.26 L 84.42 282.36 L 86.64 271.95 L 88.86 261.76 L 91.08 252.38 L 93.30 243.47 L 95.52 234.89 L 97.74 226.43 L 99.96 218.89 L 102.18 211.52 L 104.40 205.31 L 106.62 198.70 L 108.84 192.49 L 111.06 187.22 L 113.28 182.58 L 115.50 177.51 L 117.72 173.04 L 119.94 168.86 L 122.16 164.88 L 124.38 160.38 L 126.60 157.76 L 128.82 154.00 L 131.04 150.17 L 133.26 148.00 L 135.48 145.49 L 137.70 143.52 L 139.92 140.86 L 142.14 138.31 L 144.36 135.78 L 146.58 133.82 L 148.80 131.80 L 151.02 130.52 L 153.24 128.76 L 155.46 127.31 L 157.68 124.91 L 159.90 123.65 L 162.12 122.51 L 164.34 120.58 L 166.56 121.06 L 168.78 119.91 L 171.00 118.28 L 173.22 117.42 L 175.44 117.12 L 177.66 115.09 L 179.88 114.81 L 182.10 114.29 L 184.32 113.53 L 186.54 113.32 L 188.76 112.17 L 190.98 112.70 L 193.20 111.51 L 195.42 111.22 L 197.64 110.00 L 199.86 109.85 L 202.08 109.76 L 204.30 109.60 L 206.52 109.24 L 208.74 108.68 L 210.96 107.17 L 213.18 107.70 L 215.40 106.90 L 217.62 107.30 L 219.84 107.21 L 222.06 106.82 L 224.28 106.40 L 226.50 106.50 L 228.72 105.93 L 230.94 106.78 L 233.16 105.53 L 235.38 106.16 L 237.60 106.13 L 239.82 105.85 L 242.04 105.67 L 244.26 104.92 L 246.48 104.83 L 248.70 104.94 L 250.92 105.59 L 253.14 105.44 L 255.36 104.87 L 257.58 104.86 L 259.80 104.55 L 262.02 104.90 L 264.24 105.28 L 266.46 104.37 L 268.68 104.55 L 270.90 104.42 L 273.12 103.69 L 275.34 104.58 L 277.56 104.55 L 279.78 104.07 L 282.00 104.02 L 284.22 104.11 L 286.44 104.61 L 288.66 104.19 L 290.88 104.79 L 293.10 104.20 L 295.32 103.63 L 297.54 103.96 L 299.76 103.56 L 301.98 104.37 L 304.20 103.85 L 306.42 104.41 L 308.64 104.10 L 310.86 103.72 L 313.08 103.99 L 315.30 104.54 L 317.52 103.54 L 319.74 104.06 L 321.96 104.37 L 324.18 104.08 L 326.40 103.74 L 328.62 103.81 L 330.84 103.78 L 333.06 104.48 L 335.28 104.44 L 337.50 103.52 L 339.72 103.62 L 341.94 103.65 L 344.16 103.89 L 346.38 103.45 L 348.60 104.67 L 350.82 104.28 L 353.04 103.75 L 355.26 103.91 L 357.48 103.34 L 359.70 104.04 L 361.92 103.85 L 364.14 103.83 L 366.36 104.13 L 368.58 104.38 L 370.80 104.30 L 373.02 103.33 L 375.24 103.87 L 377.46 103.99 L 379.68 104.03 L 381.90 104.16 L 384.12 103.65 L 386.34 103.65 L 388.56 103.47 L 390.78 104.83 L 393.00 103.92 L 395.22 103.73 L 397.44 104.17 L 399.66 103.56 L 401.88 104.16 L 404.10 103.64 L 406.32 104.14 L 408.54 103.58 L 410.76 104.30 L 412.98 103.92 L 415.20 104.27 L 417.42 103.95 L 419.64 104.34 L 421.86 103.92 L 424.08 104.25 L 426.30 104.33 L 428.52 103.67 L 430.74 104.35 L 432.96 103.90 L 435.18 104.22 L 437.40 103.76 L 439.62 103.92 L 441.84 103.71 L 444.06 103.88 L 446.28 104.54 L 448.50 104.60 L 450.72 104.69 L 452.94 103.75 L 455.16 104.05 L 457.38 104.66 L 459.60 104.03 L 461.82 104.19 L 464.04 103.72 L 466.26 104.99 L 468.48 104.55 L 470.70 103.96 L 472.92 104.39 L 475.14 103.71 L 477.36 104.02 L 479.58 103.80 L 481.80 103.77 L 484.02 104.78 L 486.24 105.10 L 488.46 104.00 L 490.68 104.14 L 492.90 104.05 L 495.12 103.67 L 497.34 104.38 L 499.56 104.60 L 501.78 105.29 L 504.00 104.48 L 506.22 103.83 L 508.44 104.78 L 510.66 104.88 L 512.88 104.78 L 515.10 104.37 L 517.32 104.51 L 519.54 104.86 L 521.76 104.58 L 523.98 104.52 L 526.20 105.60 L 528.42 105.10 L 530.64 104.08 L 532.86 104.32 L 535.08 104.95 L 537.30 104.30 L 539.52 104.98 L 541.74 104.82 L 543.96 104.83 L 546.18 105.01 L 548.40 105.17 L 550.62 104.78 L 552.84 104.57 L 555.06 104.44 L 557.28 104.43 L 559.50 105.25 L 561.72 104.96 L 563.94 104.36 L 566.16 105.38 L 568.38 104.71 L 570.60 104.97 L 572.82 105.23 L 575.04 105.10 L 577.26 104.40 L 579.48 104.53 L 581.70 104.66 L 583.92 104.24 L 586.14 105.24 L 588.36 104.60 L 590.58 104.50 L 592.80 104.89 L 595.02 105.29 L 597.24 104.78 L 599.46 104.54 L 601.68 103.74 L 603.90 104.42 L 606.12 104.24 L 608.34 104.48 L 610.56 105.09 L 612.78 104.79 L 615.00 104.71 L 617.22 104.50 L 619.44 105.58 L 621.66 104.92 L 623.88 104.64 L 626.10 104.92 L 628.32 103.99 L 630.54 104.51 L 632.76 104.66 L 634.98 104.93 L 637.20 104.94 L 639.42 104.37 L 641.64 104.62 L 643.86 105.07 L 646.08 104.41 L 648.30 104.43 L 650.52 105.35 L 652.74 105.61 L 654.96 104.34 L 657.18 105.00 L 659.40 104.50 L 661.62 105.60 L 663.84 104.89 L 666.06 104.67 L 668.28 105.34 L 670.50 104.59 L 672.72 104.86 L 674.94 105.44 L 677.16 104.88 L 679.38 104.81 L 681.60 104.38 L 683.82 104.74 L 686.04 104.61 L 688.26 105.20 L 690.48 104.78 L 692.70 105.01 L 694.92 105.11 L 697.14 104.67 L 699.36 105.37 L 701.58 105.18 L 703.80 105.76 L 706.02 105.32 L 708.24 104.84 L 710.46 105.72 L 712.68 104.84 L 714.90 105.46 L 717.12 105.60 L 719.34 105.03 L 721.56 104.67 L 723.78 105.35 L 726.00 104.49 L 728.22 105.00 L 730.44 104.97 L 732.66 105.48 L 734.88 104.32 L 737.10 104.24 L 739.32 105.59 L 741.54 105.75 L 743.76 105.09 L 745.98 105.88 L 748.20 104.56 L 750.42 105.84 L 752.64 105.26 L 754.86 105.09 L 757.08 105.35 L 759.30 105.47 L 761.52 105.41 L 763.74 105.44 L 765.96 105.79 L 768.18 104.97 L 770.40 105.52 L 772.62 105.23 L 774.84 104.79 L 777.06 105.18 L 779.28 105.15 L 781.50 105.45 L 783.72 105.75 L 785.94 105.97 L 788.16 104.48 L 790.38 105.28 L 792.60 105.50 L 794.82 105.14 L 797.04 105.01 L 799.26 104.38 L 801.48 105.54 L 803.70 105.12 L 805.92 104.73 L 808.14 104.86 L 810.36 105.59 L 812.58 105.26 L 814.80 105.47 L 817.02 105.06 L 819.24 105.76 L 821.46 106.07 L 823.68 105.66 L 825.90 106.04 L 828.12 106.08 L 830.34 105.42 L 832.56 105.01 L 834.78 105.07 L 837.00 105.08 L 839.22 105.06 L 841.44 105.99 L 843.66 105.59 L 845.88 105.28 L 848.10 105.82 L 850.32 105.89 L 852.54 105.17 L 854.76 105.44 L 856.98 105.88 L 859.20 105.41 L 861.42 105.77 L 863.64 104.76 L 865.86 106.22 L 868.08 106.31 L 870.30 105.45 L 872.52 104.60 L 874.74 105.29 L 876.96 105.06 L 879.18 105.61 L 881.40 105.51 L 883.62 105.36 L 885.84 105.31 L 888.06 105.58 L 890.28 105.17 L 892.50 105.06 L 894.72 105.39 L 896.94 106.39 L 899.16 106.16 L 901.38 105.32 L 903.60 105.58 L 905.82 106.17 L 908.04 106.30 L 910.26 106.18 L 912.48 106.06 L 914.70 104.81 L 916.92 105.05 L 919.14 104.87 L 921.36 106.06 L 923.58 106.37 L 925.80 105.22 L 928.02 105.90 L 930.24 106.04 L 932.46 105.68 L 934.68 105.49 L 936.90 106.60 L 939.12 105.66 L 941.34 105.15 L 943.56 105.29 L 945.78 105.62 L 948.00 106.30 L 950.22 105.15 L 952.44 105.73 L 954.66 105.28 L 956.88 105.88 L 959.10 106.10 L 961.32 105.47 L 963.54 104.84 L 965.76 105.75 L 967.98 105.46 L 970.20 105.42 L 972.42 105.02 L 974.64 106.10 L 976.86 106.49 L 979.08 105.98 L 981.30 104.97 L 983.52 105.69 L 985.74 105.56 L 987.96 105.15 L 990.18 105.43 L 992.40 105.74 L 994.62 105.79 L 996.84 105.22 L 999.06 106.36 L 1001.28 105.22 L 1003.50 106.08 L 1005.72 105.11 L 1007.94 104.73 L 1010.16 105.71 L 1012.38 105.62 L 1014.60 105.88 L 1016.82 105.94 L 1019.04 105.72 L 1021.26 105.19 L 1023.48 105.55 L 1025.70 105.65 L 1027.92 106.58 L 1030.14 105.18 L 1032.36 105.23 L 1034.58 105.93 L 1036.80 105.85 L 1039.02 106.30 L 1041.24 105.72 L 1043.46 105.58 L 1045.68 105.99 L 1047.90 105.02 L 1050.12 105.97 L 1052.34 106.34 L 1054.56 106.08 L 1056.78 106.64 L 1059.00 105.37 L 1061.22 106.13 L 1063.44 105.65 L 1065.66 105.71 L 1067.88 105.88 L 1070.10 106.33 L 1072.32 105.59 L 1074.54 105.99 L 1076.76 105.69 L 1078.98 106.71 L 1081.20 105.68 L 1083.42 106.41 L 1085.64 106.23 L 1087.86 105.92 L 1090.08 106.05 L 1092.30 105.94 L 1094.52 106.13 L 1096.74 105.52 L 1098.96 106.13 L 1101.18 105.71 L 1103.40 105.49 L 1105.62 106.29 L 1107.84 105.56 L 1110.06 106.01 L 1112.28 106.37 L 1114.50 105.54 L 1116.72 106.28 L 1118.94 106.35 L 1121.16 105.96 L 1123.38 106.52 L 1125.60 105.80 L 1127.82 106.83 L 1130.04 106.32 L 1132.26 105.52 L 1134.48 106.47 L 1136.70 105.94 L 1138.92 106.87 L 1141.14 105.78 L 1143.36 106.52 L 1145.58 105.39 L 1147.80 106.05 L 1150.02 106.59 L 1152.24 106.54 L 1154.46 106.40 L 1156.68 105.57 L 1158.90 105.57 L 1161.12 106.31 L 1163.34 105.91 L 1165.56 106.11 L 1167.78 106.54 L 1170.00 106.52" fill="none" stroke="#d62728" stroke-width="2" opacity="0.8"/>
  <path d="M 60.00 436.67 L 62.22 436.34 L 64.44 419.24 L 66.66 400.52 L 68.88 382.51 L 71.10 365.07 L 73.32 349.34 L 75.54 334.44 L 77.76 320.60 L 79.98 306.56 L 82.20 294.26 L 84.42 282.36 L 86.64 271.95 L 88.86 261.76 L 91.08 252.38 L 93.30 243.47 L 95.52 234.89 L 97.74 226.43 L 99.96 218.89 L 102.18 211.52 L 104.40 205.31 L 106.62 198.70 L 108.84 192.49 L 111.06 187.22 L 113.28 182.58 L 115.50 177.51 L 117.72 173.04 L 119.94 168.86 L 122.16 164.88 L 124.38 160.38 L 126.60 157.76 L 128.82 154.00 L 131.04 150.17 L 133.26 148.00 L 135.48 145.49 L 137.70 143.52 L 139.92 140.86 L 142.14 138.31 L 144.36 135.78 L 146.58 133.82 L 148.80 131.80 L 151.02 130.52 L 153.24 128.76 L 155.46 127.31 L 157.68 124.91 L 159.90 123.65 L 162.12 122.51 L 164.34 120.58 L 166.56 121.06 L 168.78 119.91 L 171.00 118.28 L 173.22 117.42 L 175.44 117.12 L 177.66 115.09 L 179.88 114.81 L 182.10 114.29 L 184.32 113.53 L 186.54 113.32 L 188.76 112.17 L 190.98 112.70 L 193.20 111.51 L 195.42 111.22 L 197.64 110.00 L 199.86 109.85 L 202.08 109.76 L 204.30 109.60 L 206.52 109.24 L 208.74 108.68 L 210.96 107.17 L 213.18 107.70 L 215.40 106.90 L 217.62 107.30 L 219.84 107.21 L 222.06 106.82 L 224.28 106.40 L 226.50 106.50 L 228.72 105.93 L 230.94 106.78 L 233.16 105.53 L 235.38 106.16 L 237.60 106.13 L 239.82 105.85 L 242.04 105.67 L 244.26 104.92 L 246.48 104.83 L 248.70 104.94 L 250.92 105.59 L 253.14 105.44 L 255.36 104.87 L 257.58 104.86 L 259.80 104.55 L 262.02 104.90 L 264.24 105.28 L 266.46 104.37 L 268.68 104.55 L 270.90 104.42 L 273.12 103.69 L 275.34 104.58 L 277.56 104.55 L 279.78 104.07 L 282.00 104.02 L 284.22 104.11 L 286.44 104.61 L 288.66 104.19 L 290.88 104.79 L 293.10 104.20 L 295.32 103.63 L 297.54 103.96 L 299.76 103.56 L 301.98 104.37 L 304.20 103.85 L 306.42 104.41 L 308.64 104.10 L 310.86 103.72 L 313.08 103.99 L 315.30 104.54 L 317.52 103.54 L 319.74 104.06 L 321.96 104.37 L 324.18 104.08 L 326.40 103.74 L 328.62 103.81 L 330.84 103.78 L 333.06 104.48 L 335.28 104.44 L 337.50 103.52 L 339.72 103.62 L 341.94 103.65 L 344.16 103.89 L 346.38 103.45 L 348.60 104.67 L 350.82 104.28 L 353.04 103.75 L 355.26 103.91 L 357.48 103.34 L 359.70 104.04 L 361.92 103.85 L 364.14 103.83 L 366.36 104.13 L 368.58 104.38 L 370.80 104.30 L 373.02 103.33 L 375.24 103.87 L 377.46 103.99 L 379.68 104.03 L 381.90 104.16 L 384.12 103.65 L 386.34 103.65 L 388.56 103.47 L 390.78 104.83 L 393.00 103.92 L 395.22 103.73 L 397.44 104.17 L 399.66 103.56 L 401.88 104.16 L 404.10 103.64 L 406.32 104.14 L 408.54 103.58 L 410.76 104.30 L 412.98 103.92 L 415.20 104.27 L 417.42 103.95 L 419.64 104.34 L 421.86 103.92 L 424.08 104.25 L 426.30 104.33 L 428.52 103.67 L 430.74 104.35 L 432.96 103.90 L 435.18 104.22 L 437.40 103.76 L 439.62 103.92 L 441.84 103.71 L 444.06 103.88 L 446.28 104.54 L 448.50 104.60 L 450.72 104.69 L 452.94 103.75 L 455.16 104.05 L 457.38 104.66 L 459.60 104.03 L 461.82 104.19 L 464.04 103.72 L 466.26 104.99 L 468.48 104.55 L 470.70 103.96 L 472.92 104.39 L 475.14 103.71 L 477.36 104.02 L 479.58 103.80 L 481.80 103.77 L 484.02 104.78 L 486.24 105.10 L 488.46 104.00 L 490.68 104.14 L 492.90 104.05 L 495.12 103.67 L 497.34 104.38 L 499.56 104.60 L 501.78 105.29 L 504.00 104.48 L 506.22 103.83 L 508.44 104.78 L 510.66 104.88 L 512.88 104.78 L 515.10 104.37 L 517.32 104.51 L 519.54 104.86 L 521.76 104.58 L 523.98 104.52 L 526.20 105.60 L 528.42 105.10 L 530.64 104.08 L 532.86 104.32 L 535.08 104.95 L 537.30 104.30 L 539.52 104.98 L 541.74 104.82 L 543.96 104.83 L 546.18 105.01 L 548.40 105.17 L 550.62 104.78 L 552.84 104.57 L 555.06 104.44 L 557.28 104.43 L 559.50 105.25 L 561.72 104.96 L 563.94 104.36 L 566.16 105.38 L 568.38 104.71 L 570.60 104.97 L 572.82 105.23 L 575.04 105.10 L 577.26 104.40 L 579.48 104.53 L 581.70 104.66 L 583.92 104.24 L 586.14 105.24 L 588.36 104.60 L 590.58 104.50 L 592.80 104.89 L 595.02 105.29 L 597.24 104.78 L 599.46 104.54 L 601.68 103.74 L 603.90 104.42 L 606.12 104.24 L 608.34 104.48 L 610.56 105.09 L 612.78 104.79 L 615.00 104.71 L 617.22 104.50 L 619.44 105.58 L 621.66 104.92 L 623.88 104.64 L 626.10 104.92 L 628.32 103.99 L 630.54 104.51 L 632.76 104.66 L 634.98 104.93 L 637.20 104.94 L 639.42 104.37 L 641.64 104.62 L 643.86 105.07 L 646.08 104.41 L 648.30 104.43 L 650.52 105.35 L 652.74 105.61 L 654.96 104.34 L 657.18 105.00 L 659.40 104.50 L 661.62 105.60 L 663.84 104.89 L 666.06 104.67 L 668.28 105.34 L 670.50 104.59 L 672.72 104.86 L 674.94 105.44 L 677.16 104.88 L 679.38 104.81 L 681.60 104.38 L 683.82 104.74 L 686.04 104.61 L 688.26 105.20 L 690.48 104.78 L 692.70 105.01 L 694.92 105.11 L 697.14 104.67 L 699.36 105.37 L 701.58 105.18 L 703.80 105.76 L 706.02 105.32 L 708.24 104.84 L 710.46 105.72 L 712.68 104.84 L 714.90 105.46 L 717.12 105.60 L 719.34 105.03 L 721.56 104.67 L 723.78 105.35 L 726.00 104.49 L 728.22 105.00 L 730.44 104.97 L 732.66 105.48 L 734.88 104.32 L 737.10 104.24 L 739.32 105.59 L 741.54 105.75 L 743.76 105.09 L 745.98 105.88 L 748.20 104.56 L 750.42 105.84 L 752.64 105.26 L 754.86 105.09 L 757.08 105.35 L 759.30 105.47 L 761.52 105.41 L 763.74 105.44 L 765.96 105.79 L 768.18 104.97 L 770.40 105.52 L 772.62 105.23 L 774.84 104.79 L 777.06 105.18 L 779.28 105.15 L 781.50 105.45 L 783.72 105.75 L 785.94 105.97 L 788.16 104.48 L 790.38 105.28 L 792.60 105.50 L 794.82 105.14 L 797.04 105.01 L 799.26 104.38 L 801.48 105.54 L 803.70 105.12 L 805.92 104.73 L 808.14 104.86 L 810.36 105.59 L 812.58 105.26 L 814.80 105.47 L 817.02 105.06 L 819.24 105.76 L 821.46 106.07 L 823.68 105.66 L 825.90 106.04 L 828.12 106.08 L 830.34 105.42 L 832.56 105.01 L 834.78 105.07 L 837.00 105.08 L 839.22 105.06 L 841.44 105.99 L 843.66 105.59 L 845.88 105.28 L 848.10 105.82 L 850.32 105.89 L 852.54 105.17 L 854.76 105.44 L 856.98 105.88 L 859.20 105.41 L 861.42 105.77 L 863.64 104.76 L 865.86 106.22 L 868.08 106.31 L 870.30 105.45 L 872.52 104.60 L 874.74 105.29 L 876.96 105.06 L 879.18 105.61 L 881.40 105.51 L 883.62 105.36 L 885.84 105.31 L 888.06 105.58 L 890.28 105.17 L 892.50 105.06 L 894.72 105.39 L 896.94 106.39 L 899.16 106.16 L 901.38 105.32 L 903.60 105.58 L 905.82 106.17 L 908.04 106.30 L 910.26 106.18 L 912.48 106.06 L 914.70 104.81 L 916.92 105.05 L 919.14 104.87 L 921.36 106.06 L 923.58 106.37 L 925.80 105.22 L 928.02 105.90 L 930.24 106.04 L 932.46 105.68 L 934.68 105.49 L 936.90 106.60 L 939.12 105.66 L 941.34 105.15 L 943.56 105.29 L 945.78 105.62 L 948.00 106.30 L 950.22 105.15 L 952.44 105.73 L 954.66 105.28 L 956.88 105.88 L 959.10 106.10 L 961.32 105.47 L 963.54 104.84 L 965.76 105.75 L 967.98 105.46 L 970.20 105.42 L 972.42 105.02 L 974.64 106.10 L 976.86 106.49 L 979.08 105.98 L 981.30 104.97 L 983.52 105.69 L 985.74 105.56 L 987.96 105.15 L 990.18 105.43 L 992.40 105.74 L 994.62 105.79 L 996.84 105.22 L 999.06 106.36 L 1001.28 105.22 L 1003.50 106.08 L 1005.72 105.11 L 1007.94 104.73 L 1010.16 105.71 L 1012.38 105.62 L 1014.60 105.88 L 1016.82 105.94 L 1019.04 105.72 L 1021.26 105.19 L 1023.48 105.55 L 1025.70 105.65 L 1027.92 106.58 L 1030.14 105.18 L 1032.36 105.23 L 1034.58 105.93 L 1036.80 105.85 L 1039.02 106.30 L 1041.24 105.72 L 1043.46 105.58 L 1045.68 105.99 L 1047.90 105.02 L 1050.12 105.97 L 1052.34 106.34 L 1054.56 106.08 L 1056.78 106.64 L 1059.00 105.37 L 1061.22 106.13 L 1063.44 105.65 L 1065.66 105.71 L 1067.88 105.88 L 1070.10 106.33 L 1072.32 105.59 L 1074.54 105.99 L 1076.76 105.69 L 1078.98 106.71 L 1081.20 105.68 L 1083.42 106.41 L 1085.64 106.23 L 1087.86 105.92 L 1090.08 106.05 L 1092.30 105.94 L 1094.52 106.13 L 1096.74 105.52 L 1098.96 106.13 L 1101.18 105.71 L 1103.40 105.49 L 1105.62 106.29 L 1107.84 105.56 L 1110.06 106.01 L 1112.28 106.37 L 1114.50 105.54 L 1116.72 106.28 L 1118.94 106.35 L 1121.16 105.96 L 1123.38 106.52 L 1125.60 105.80 L 1127.82 106.83 L 1130.04 106.32 L 1132.26 105.52 L 1134.48 106.47 L 1136.70 105.94 L 1138.92 106.87 L 1141.14 105.78 L 1143.36 106.52 L 1145.58 105.39 L 1147.80 106.05 L 1150.02 106.59 L 1152.24 106.54 L 1154.46 106.40 L 1156.68 105.57 L 1158.90 105.57 L 1161.12 106.31 L 1163.34 105.91 L 1165.56 106.11 L 1167.78 106.54 L 1170.00 106.52" fill="none" stroke="#1f77b4" stroke-width="2"/>
  <g transform="translate(70, 80)">
    <line x1="0" y1="0" x2="20" y2="0" stroke="#888" stroke-width="1.5" stroke-dasharray="4 3"/>
    <text x="25" y="4" font-size="11">target</text>
    <line x1="0" y1="14" x2="20" y2="14" stroke="#d62728" stroke-width="2"/>
    <text x="25" y="18" font-size="11">纯PID feedback</text>
    <line x1="0" y1="28" x2="20" y2="28" stroke="#1f77b4" stroke-width="2"/>
    <text x="25" y="32" font-size="11">含前馈 feedback</text>
  </g>
  <text x="615" y="510" text-anchor="middle" font-size="11">time (s)</text>
</svg>