<?xml version="1.0" encoding="UTF-8"?>
<svg xmlns="http://www.w3.org/2000/svg" viewBox="0 0 1000 480" font-family="monospace" font-size="12">
  <rect width="1000" height="480" fill="#ffffff"/>
  <text x="60" y="20" font-size="14" font-weight="bold">motor_speed - A: 默认参数 正弦跟踪</text>
  <text x="60" y="36" font-size="11" fill="#555">参数: Kp=5.655 Ki=0.39 Kd=0</text>
  <text x="970" y="20" text-anchor="end" font-size="11" fill="#555">超调=undefined% | 稳态误差=undefined | 振荡=undefined%</text>
  <!-- axes -->
  <line x1="60" y1="50" x2="60" y2="430" stroke="#333"/>
  <line x1="60" y1="430" x2="970" y2="430" stroke="#333"/>
  <!-- grid -->
  <line x1="60" y1="50" x2="970" y2="50" stroke="#eee"/><text x="55" y="54" text-anchor="end" font-size="10" fill="#555">13.67</text><line x1="60" y1="145" x2="970" y2="145" stroke="#eee"/><text x="55" y="149" text-anchor="end" font-size="10" fill="#555">8.65</text><line x1="60" y1="240" x2="970" y2="240" stroke="#eee"/><text x="55" y="244" text-anchor="end" font-size="10" fill="#555">3.63</text><line x1="60" y1="335" x2="970" y2="335" stroke="#eee"/><text x="55" y="339" text-anchor="end" font-size="10" fill="#555">-1.39</text><line x1="60" y1="430" x2="970" y2="430" stroke="#eee"/><text x="55" y="434" text-anchor="end" font-size="10" fill="#555">-6.42</text>
  <text x="60" y="445" text-anchor="middle" font-size="10" fill="#555">0.00</text><text x="242" y="445" text-anchor="middle" font-size="10" fill="#555">2.00</text><text x="424" y="445" text-anchor="middle" font-size="10" fill="#555">4.00</text><text x="606" y="445" text-anchor="middle" font-size="10" fill="#555">6.00</text><text x="788" y="445" text-anchor="middle" font-size="10" fill="#555">8.00</text><text x="970" y="445" text-anchor="middle" font-size="10" fill="#555">10.00</text>
  <!-- target (dashed gray) -->
  <path d="M 60.00 214.06 L 60.91 212.87 L 61.82 211.68 L 62.73 210.49 L 63.64 209.31 L 64.55 208.12 L 65.46 206.93 L 66.37 205.75 L 67.28 204.57 L 68.19 203.39 L 69.10 202.21 L 70.01 201.03 L 70.92 199.85 L 71.83 198.68 L 72.74 197.51 L 73.65 196.34 L 74.56 195.17 L 75.47 194.01 L 76.38 192.85 L 77.29 191.69 L 78.20 190.54 L 79.11 189.39 L 80.02 188.25 L 80.93 187.10 L 81.84 185.97 L 82.75 184.84 L 83.66 183.71 L 84.57 182.58 L 85.48 181.47 L 86.39 180.35 L 87.30 179.25 L 88.21 178.14 L 89.12 177.05 L 90.03 175.96 L 90.94 174.87 L 91.85 173.79 L 92.76 172.72 L 93.67 171.66 L 94.58 170.60 L 95.49 169.55 L 96.40 168.50 L 97.31 167.46 L 98.22 166.43 L 99.13 165.41 L 100.04 164.39 L 100.95 163.39 L 101.86 162.39 L 102.77 161.40 L 103.68 160.41 L 104.59 159.44 L 105.50 158.47 L 106.41 157.52 L 107.32 156.57 L 108.23 155.63 L 109.14 154.70 L 110.05 153.78 L 110.96 152.87 L 111.87 151.97 L 112.78 151.08 L 113.69 150.19 L 114.60 149.32 L 115.51 148.46 L 116.42 147.61 L 117.33 146.77 L 118.24 145.94 L 119.15 145.12 L 120.06 144.31 L 120.97 143.52 L 121.88 142.73 L 122.79 141.96 L 123.70 141.19 L 124.61 140.44 L 125.52 139.70 L 126.43 138.97 L 127.34 138.26 L 128.25 137.55 L 129.16 136.86 L 130.07 136.18 L 130.98 135.51 L 131.89 134.86 L 132.80 134.21 L 133.71 133.58 L 134.62 132.97 L 135.53 132.36 L 136.44 131.77 L 137.35 131.19 L 138.26 130.62 L 139.17 130.07 L 140.08 129.53 L 140.99 129.01 L 141.90 128.49 L 142.81 127.99 L 143.72 127.51 L 144.63 127.04 L 145.54 126.58 L 146.45 126.13 L 147.36 125.70 L 148.27 125.29 L 149.18 124.88 L 150.09 124.50 L 151.00 124.12 L 151.91 123.76 L 152.82 123.41 L 153.73 123.08 L 154.64 122.77 L 155.55 122.46 L 156.46 122.18 L 157.37 121.90 L 158.28 121.64 L 159.19 121.40 L 160.10 121.17 L 161.01 120.95 L 161.92 120.75 L 162.83 120.57 L 163.74 120.39 L 164.65 120.24 L 165.56 120.10 L 166.47 119.97 L 167.38 119.86 L 168.29 119.76 L 169.20 119.68 L 170.11 119.61 L 171.02 119.56 L 171.93 119.52 L 172.84 119.50 L 173.75 119.49 L 174.66 119.50 L 175.57 119.52 L 176.48 119.56 L 177.39 119.61 L 178.30 119.68 L 179.21 119.76 L 180.12 119.86 L 181.03 119.97 L 181.94 120.10 L 182.85 120.24 L 183.76 120.39 L 184.67 120.57 L 185.58 120.75 L 186.49 120.95 L 187.40 121.17 L 188.31 121.40 L 189.22 121.64 L 190.13 121.90 L 191.04 122.18 L 191.95 122.46 L 192.86 122.77 L 193.77 123.08 L 194.68 123.41 L 195.59 123.76 L 196.50 124.12 L 197.41 124.50 L 198.32 124.88 L 199.23 125.29 L 200.14 125.70 L 201.05 126.13 L 201.96 126.58 L 202.87 127.04 L 203.78 127.51 L 204.69 127.99 L 205.60 128.49 L 206.51 129.01 L 207.42 129.53 L 208.33 130.07 L 209.24 130.62 L 210.15 131.19 L 211.06 131.77 L 211.97 132.36 L 212.88 132.97 L 213.79 133.58 L 214.70 134.21 L 215.61 134.86 L 216.52 135.51 L 217.43 136.18 L 218.34 136.86 L 219.25 137.55 L 220.16 138.26 L 221.07 138.97 L 221.98 139.70 L 222.89 140.44 L 223.80 141.19 L 224.71 141.96 L 225.62 142.73 L 226.53 143.52 L 227.44 144.31 L 228.35 145.12 L 229.26 145.94 L 230.17 146.77 L 231.08 147.61 L 231.99 148.46 L 232.90 149.32 L 233.81 150.19 L 234.72 151.08 L 235.63 151.97 L 236.54 152.87 L 237.45 153.78 L 238.36 154.70 L 239.27 155.63 L 240.18 156.57 L 241.09 157.52 L 242.00 158.47 L 242.91 159.44 L 243.82 160.41 L 244.73 161.40 L 245.64 162.39 L 246.55 163.39 L 247.46 164.39 L 248.37 165.41 L 249.28 166.43 L 250.19 167.46 L 251.10 168.50 L 252.01 169.55 L 252.92 170.60 L 253.83 171.66 L 254.74 172.72 L 255.65 173.79 L 256.56 174.87 L 257.47 175.96 L 258.38 177.05 L 259.29 178.14 L 260.20 179.25 L 261.11 180.35 L 262.02 181.47 L 262.93 182.58 L 263.84 183.71 L 264.75 184.84 L 265.66 185.97 L 266.57 187.10 L 267.48 188.25 L 268.39 189.39 L 269.30 190.54 L 270.21 191.69 L 271.12 192.85 L 272.03 194.01 L 272.94 195.17 L 273.85 196.34 L 274.76 197.51 L 275.67 198.68 L 276.58 199.85 L 277.49 201.03 L 278.40 202.21 L 279.31 203.39 L 280.22 204.57 L 281.13 205.75 L 282.04 206.93 L 282.95 208.12 L 283.86 209.31 L 284.77 210.49 L 285.68 211.68 L 286.59 212.87 L 287.50 214.06 L 288.41 215.25 L 289.32 216.43 L 290.23 217.62 L 291.14 218.81 L 292.05 220.00 L 292.96 221.18 L 293.87 222.36 L 294.78 223.55 L 295.69 224.73 L 296.60 225.91 L 297.51 227.09 L 298.42 228.26 L 299.33 229.44 L 300.24 230.61 L 301.15 231.78 L 302.06 232.94 L 302.97 234.11 L 303.88 235.27 L 304.79 236.42 L 305.70 237.57 L 306.61 238.72 L 307.52 239.87 L 308.43 241.01 L 309.34 242.15 L 310.25 243.28 L 311.16 244.41 L 312.07 245.53 L 312.98 246.65 L 313.89 247.76 L 314.80 248.87 L 315.71 249.97 L 316.62 251.07 L 317.53 252.16 L 318.44 253.24 L 319.35 254.32 L 320.26 255.39 L 321.17 256.46 L 322.08 257.52 L 322.99 258.57 L 323.90 259.61 L 324.81 260.65 L 325.72 261.68 L 326.63 262.71 L 327.54 263.72 L 328.45 264.73 L 329.36 265.73 L 330.27 266.72 L 331.18 267.70 L 332.09 268.68 L 333.00 269.64 L 333.91 270.60 L 334.82 271.55 L 335.73 272.48 L 336.64 273.41 L 337.55 274.34 L 338.46 275.25 L 339.37 276.15 L 340.28 277.04 L 341.19 277.92 L 342.10 278.79 L 343.01 279.65 L 343.92 280.50 L 344.83 281.34 L 345.74 282.17 L 346.65 282.99 L 347.56 283.80 L 348.47 284.60 L 349.38 285.38 L 350.29 286.16 L 351.20 286.92 L 352.11 287.67 L 353.02 288.41 L 353.93 289.14 L 354.84 289.86 L 355.75 290.56 L 356.66 291.25 L 357.57 291.93 L 358.48 292.60 L 359.39 293.26 L 360.30 293.90 L 361.21 294.53 L 362.12 295.15 L 363.03 295.75 L 363.94 296.35 L 364.85 296.92 L 365.76 297.49 L 366.67 298.04 L 367.58 298.58 L 368.49 299.11 L 369.40 299.62 L 370.31 300.12 L 371.22 300.61 L 372.13 301.08 L 373.04 301.54 L 373.95 301.98 L 374.86 302.41 L 375.77 302.83 L 376.68 303.23 L 377.59 303.62 L 378.50 303.99 L 379.41 304.35 L 380.32 304.70 L 381.23 305.03 L 382.14 305.35 L 383.05 305.65 L 383.96 305.94 L 384.87 306.21 L 385.78 306.47 L 386.69 306.72 L 387.60 306.95 L 388.51 307.16 L 389.42 307.36 L 390.33 307.55 L 391.24 307.72 L 392.15 307.88 L 393.06 308.02 L 393.97 308.14 L 394.88 308.26 L 395.79 308.35 L 396.70 308.44 L 397.61 308.50 L 398.52 308.55 L 399.43 308.59 L 400.34 308.61 L 401.25 308.62 L 402.16 308.61 L 403.07 308.59 L 403.98 308.55 L 404.89 308.50 L 405.80 308.44 L 406.71 308.35 L 407.62 308.26 L 408.53 308.14 L 409.44 308.02 L 410.35 307.88 L 411.26 307.72 L 412.17 307.55 L 413.08 307.36 L 413.99 307.16 L 414.90 306.95 L 415.81 306.72 L 416.72 306.47 L 417.63 306.21 L 418.54 305.94 L 419.45 305.65 L 420.36 305.35 L 421.27 305.03 L 422.18 304.70 L 423.09 304.35 L 424.00 303.99 L 424.91 303.62 L 425.82 303.23 L 426.73 302.83 L 427.64 302.41 L 428.55 301.98 L 429.46 301.54 L 430.37 301.08 L 431.28 300.61 L 432.19 300.12 L 433.10 299.62 L 434.01 299.11 L 434.92 298.58 L 435.83 298.04 L 436.74 297.49 L 437.65 296.92 L 438.56 296.35 L 439.47 295.75 L 440.38 295.15 L 441.29 294.53 L 442.20 293.90 L 443.11 293.26 L 444.02 292.60 L 444.93 291.93 L 445.84 291.25 L 446.75 290.56 L 447.66 289.86 L 448.57 289.14 L 449.48 288.41 L 450.39 287.67 L 451.30 286.92 L 452.21 286.16 L 453.12 285.38 L 454.03 284.60 L 454.94 283.80 L 455.85 282.99 L 456.76 282.17 L 457.67 281.34 L 458.58 280.50 L 459.49 279.65 L 460.40 278.79 L 461.31 277.92 L 462.22 277.04 L 463.13 276.15 L 464.04 275.25 L 464.95 274.34 L 465.86 273.41 L 466.77 272.48 L 467.68 271.55 L 468.59 270.60 L 469.50 269.64 L 470.41 268.68 L 471.32 267.70 L 472.23 266.72 L 473.14 265.73 L 474.05 264.73 L 474.96 263.72 L 475.87 262.71 L 476.78 261.68 L 477.69 260.65 L 478.60 259.61 L 479.51 258.57 L 480.42 257.52 L 481.33 256.46 L 482.24 255.39 L 483.15 254.32 L 484.06 253.24 L 484.97 252.16 L 485.88 251.07 L 486.79 249.97 L 487.70 248.87 L 488.61 247.76 L 489.52 246.65 L 490.43 245.53 L 491.34 244.41 L 492.25 243.28 L 493.16 242.15 L 494.07 241.01 L 494.98 239.87 L 495.89 238.72 L 496.80 237.57 L 497.71 236.42 L 498.62 235.27 L 499.53 234.11 L 500.44 232.94 L 501.35 231.78 L 502.26 230.61 L 503.17 229.44 L 504.08 228.26 L 504.99 227.09 L 505.90 225.91 L 506.81 224.73 L 507.72 223.55 L 508.63 222.36 L 509.54 221.18 L 510.45 220.00 L 511.36 218.81 L 512.27 217.62 L 513.18 216.43 L 514.09 215.25 L 515.00 214.06 L 515.91 212.87 L 516.82 211.68 L 517.73 210.49 L 518.64 209.31 L 519.55 208.12 L 520.46 206.93 L 521.37 205.75 L 522.28 204.57 L 523.19 203.39 L 524.10 202.21 L 525.01 201.03 L 525.92 199.85 L 526.83 198.68 L 527.74 197.51 L 528.65 196.34 L 529.56 195.17 L 530.47 194.01 L 531.38 192.85 L 532.29 191.69 L 533.20 190.54 L 534.11 189.39 L 535.02 188.25 L 535.93 187.10 L 536.84 185.97 L 537.75 184.84 L 538.66 183.71 L 539.57 182.58 L 540.48 181.47 L 541.39 180.35 L 542.30 179.25 L 543.21 178.14 L 544.12 177.05 L 545.03 175.96 L 545.94 174.87 L 546.85 173.79 L 547.76 172.72 L 548.67 171.66 L 549.58 170.60 L 550.49 169.55 L 551.40 168.50 L 552.31 167.46 L 553.22 166.43 L 554.13 165.41 L 555.04 164.39 L 555.95 163.39 L 556.86 162.39 L 557.77 161.40 L 558.68 160.41 L 559.59 159.44 L 560.50 158.47 L 561.41 157.52 L 562.32 156.57 L 563.23 155.63 L 564.14 154.70 L 565.05 153.78 L 565.96 152.87 L 566.87 151.97 L 567.78 151.08 L 568.69 150.19 L 569.60 149.32 L 570.51 148.46 L 571.42 147.61 L 572.33 146.77 L 573.24 145.94 L 574.15 145.12 L 575.06 144.31 L 575.97 143.52 L 576.88 142.73 L 577.79 141.96 L 578.70 141.19 L 579.61 140.44 L 580.52 139.70 L 581.43 138.97 L 582.34 138.26 L 583.25 137.55 L 584.16 136.86 L 585.07 136.18 L 585.98 135.51 L 586.89 134.86 L 587.80 134.21 L 588.71 133.58 L 589.62 132.97 L 590.53 132.36 L 591.44 131.77 L 592.35 131.19 L 593.26 130.62 L 594.17 130.07 L 595.08 129.53 L 595.99 129.01 L 596.90 128.49 L 597.81 127.99 L 598.72 127.51 L 599.63 127.04 L 600.54 126.58 L 601.45 126.13 L 602.36 125.70 L 603.27 125.29 L 604.18 124.88 L 605.09 124.50 L 606.00 124.12 L 606.91 123.76 L 607.82 123.41 L 608.73 123.08 L 609.64 122.77 L 610.55 122.46 L 611.46 122.18 L 612.37 121.90 L 613.28 121.64 L 614.19 121.40 L 615.10 121.17 L 616.01 120.95 L 616.92 120.75 L 617.83 120.57 L 618.74 120.39 L 619.65 120.24 L 620.56 120.10 L 621.47 119.97 L 622.38 119.86 L 623.29 119.76 L 624.20 119.68 L 625.11 119.61 L 626.02 119.56 L 626.93 119.52 L 627.84 119.50 L 628.75 119.49 L 629.66 119.50 L 630.57 119.52 L 631.48 119.56 L 632.39 119.61 L 633.30 119.68 L 634.21 119.76 L 635.12 119.86 L 636.03 119.97 L 636.94 120.10 L 637.85 120.24 L 638.76 120.39 L 639.67 120.57 L 640.58 120.75 L 641.49 120.95 L 642.40 121.17 L 643.31 121.40 L 644.22 121.64 L 645.13 121.90 L 646.04 122.18 L 646.95 122.46 L 647.86 122.77 L 648.77 123.08 L 649.68 123.41 L 650.59 123.76 L 651.50 124.12 L 652.41 124.50 L 653.32 124.88 L 654.23 125.29 L 655.14 125.70 L 656.05 126.13 L 656.96 126.58 L 657.87 127.04 L 658.78 127.51 L 659.69 127.99 L 660.60 128.49 L 661.51 129.01 L 662.42 129.53 L 663.33 130.07 L 664.24 130.62 L 665.15 131.19 L 666.06 131.77 L 666.97 132.36 L 667.88 132.97 L 668.79 133.58 L 669.70 134.21 L 670.61 134.86 L 671.52 135.51 L 672.43 136.18 L 673.34 136.86 L 674.25 137.55 L 675.16 138.26 L 676.07 138.97 L 676.98 139.70 L 677.89 140.44 L 678.80 141.19 L 679.71 141.96 L 680.62 142.73 L 681.53 143.52 L 682.44 144.31 L 683.35 145.12 L 684.26 145.94 L 685.17 146.77 L 686.08 147.61 L 686.99 148.46 L 687.90 149.32 L 688.81 150.19 L 689.72 151.08 L 690.63 151.97 L 691.54 152.87 L 692.45 153.78 L 693.36 154.70 L 694.27 155.63 L 695.18 156.57 L 696.09 157.52 L 697.00 158.47 L 697.91 159.44 L 698.82 160.41 L 699.73 161.40 L 700.64 162.39 L 701.55 163.39 L 702.46 164.39 L 703.37 165.41 L 704.28 166.43 L 705.19 167.46 L 706.10 168.50 L 707.01 169.55 L 707.92 170.60 L 708.83 171.66 L 709.74 172.72 L 710.65 173.79 L 711.56 174.87 L 712.47 175.96 L 713.38 177.05 L 714.29 178.14 L 715.20 179.25 L 716.11 180.35 L 717.02 181.47 L 717.93 182.58 L 718.84 183.71 L 719.75 184.84 L 720.66 185.97 L 721.57 187.10 L 722.48 188.25 L 723.39 189.39 L 724.30 190.54 L 725.21 191.69 L 726.12 192.85 L 727.03 194.01 L 727.94 195.17 L 728.85 196.34 L 729.76 197.51 L 730.67 198.68 L 731.58 199.85 L 732.49 201.03 L 733.40 202.21 L 734.31 203.39 L 735.22 204.57 L 736.13 205.75 L 737.04 206.93 L 737.95 208.12 L 738.86 209.31 L 739.77 210.49 L 740.68 211.68 L 741.59 212.87 L 742.50 214.06 L 743.41 215.25 L 744.32 216.43 L 745.23 217.62 L 746.14 218.81 L 747.05 220.00 L 747.96 221.18 L 748.87 222.36 L 749.78 223.55 L 750.69 224.73 L 751.60 225.91 L 752.51 227.09 L 753.42 228.26 L 754.33 229.44 L 755.24 230.61 L 756.15 231.78 L 757.06 232.94 L 757.97 234.11 L 758.88 235.27 L 759.79 236.42 L 760.70 237.57 L 761.61 238.72 L 762.52 239.87 L 763.43 241.01 L 764.34 242.15 L 765.25 243.28 L 766.16 244.41 L 767.07 245.53 L 767.98 246.65 L 768.89 247.76 L 769.80 248.87 L 770.71 249.97 L 771.62 251.07 L 772.53 252.16 L 773.44 253.24 L 774.35 254.32 L 775.26 255.39 L 776.17 256.46 L 777.08 257.52 L 777.99 258.57 L 778.90 259.61 L 779.81 260.65 L 780.72 261.68 L 781.63 262.71 L 782.54 263.72 L 783.45 264.73 L 784.36 265.73 L 785.27 266.72 L 786.18 267.70 L 787.09 268.68 L 788.00 269.64 L 788.91 270.60 L 789.82 271.55 L 790.73 272.48 L 791.64 273.41 L 792.55 274.34 L 793.46 275.25 L 794.37 276.15 L 795.28 277.04 L 796.19 277.92 L 797.10 278.79 L 798.01 279.65 L 798.92 280.50 L 799.83 281.34 L 800.74 282.17 L 801.65 282.99 L 802.56 283.80 L 803.47 284.60 L 804.38 285.38 L 805.29 286.16 L 806.20 286.92 L 807.11 287.67 L 808.02 288.41 L 808.93 289.14 L 809.84 289.86 L 810.75 290.56 L 811.66 291.25 L 812.57 291.93 L 813.48 292.60 L 814.39 293.26 L 815.30 293.90 L 816.21 294.53 L 817.12 295.15 L 818.03 295.75 L 818.94 296.35 L 819.85 296.92 L 820.76 297.49 L 821.67 298.04 L 822.58 298.58 L 823.49 299.11 L 824.40 299.62 L 825.31 300.12 L 826.22 300.61 L 827.13 301.08 L 828.04 301.54 L 828.95 301.98 L 829.86 302.41 L 830.77 302.83 L 831.68 303.23 L 832.59 303.62 L 833.50 303.99 L 834.41 304.35 L 835.32 304.70 L 836.23 305.03 L 837.14 305.35 L 838.05 305.65 L 838.96 305.94 L 839.87 306.21 L 840.78 306.47 L 841.69 306.72 L 842.60 306.95 L 843.51 307.16 L 844.42 307.36 L 845.33 307.55 L 846.24 307.72 L 847.15 307.88 L 848.06 308.02 L 848.97 308.14 L 849.88 308.26 L 850.79 308.35 L 851.70 308.44 L 852.61 308.50 L 853.52 308.55 L 854.43 308.59 L 855.34 308.61 L 856.25 308.62 L 857.16 308.61 L 858.07 308.59 L 858.98 308.55 L 859.89 308.50 L 860.80 308.44 L 861.71 308.35 L 862.62 308.26 L 863.53 308.14 L 864.44 308.02 L 865.35 307.88 L 866.26 307.72 L 867.17 307.55 L 868.08 307.36 L 868.99 307.16 L 869.90 306.95 L 870.81 306.72 L 871.72 306.47 L 872.63 306.21 L 873.54 305.94 L 874.45 305.65 L 875.36 305.35 L 876.27 305.03 L 877.18 304.70 L 878.09 304.35 L 879.00 303.99 L 879.91 303.62 L 880.82 303.23 L 881.73 302.83 L 882.64 302.41 L 883.55 301.98 L 884.46 301.54 L 885.37 301.08 L 886.28 300.61 L 887.19 300.12 L 888.10 299.62 L 889.01 299.11 L 889.92 298.58 L 890.83 298.04 L 891.74 297.49 L 892.65 296.92 L 893.56 296.35 L 894.47 295.75 L 895.38 295.15 L 896.29 294.53 L 897.20 293.90 L 898.11 293.26 L 899.02 292.60 L 899.93 291.93 L 900.84 291.25 L 901.75 290.56 L 902.66 289.86 L 903.57 289.14 L 904.48 288.41 L 905.39 287.67 L 906.30 286.92 L 907.21 286.16 L 908.12 285.38 L 909.03 284.60 L 909.94 283.80 L 910.85 282.99 L 911.76 282.17 L 912.67 281.34 L 913.58 280.50 L 914.49 279.65 L 915.40 278.79 L 916.31 277.92 L 917.22 277.04 L 918.13 276.15 L 919.04 275.25 L 919.95 274.34 L 920.86 273.41 L 921.77 272.48 L 922.68 271.55 L 923.59 270.60 L 924.50 269.64 L 925.41 268.68 L 926.32 267.70 L 927.23 266.72 L 928.14 265.73 L 929.05 264.73 L 929.96 263.72 L 930.87 262.71 L 931.78 261.68 L 932.69 260.65 L 933.60 259.61 L 934.51 258.57 L 935.42 257.52 L 936.33 256.46 L 937.24 255.39 L 938.15 254.32 L 939.06 253.24 L 939.97 252.16 L 940.88 251.07 L 941.79 249.97 L 942.70 248.87 L 943.61 247.76 L 944.52 246.65 L 945.43 245.53 L 946.34 244.41 L 947.25 243.28 L 948.16 242.15 L 949.07 241.01 L 949.98 239.87 L 950.89 238.72 L 951.80 237.57 L 952.71 236.42 L 953.62 235.27 L 954.53 234.11 L 955.44 232.94 L 956.35 231.78 L 957.26 230.61 L 958.17 229.44 L 959.08 228.26 L 959.99 227.09 L 960.90 225.91 L 961.81 224.73 L 962.72 223.55 L 963.63 222.36 L 964.54 221.18 L 965.45 220.00 L 966.36 218.81 L 967.27 217.62 L 968.18 216.43 L 969.09 215.25 L 970.00 214.06" fill="none" stroke="#888" stroke-width="1.5" stroke-dasharray="4 3"/>
  <!-- feedback (solid blue) -->
  <path d="M 60.00 309.33 L 60.91 252.92 L 61.82 195.80 L 62.73 224.71 L 63.64 207.02 L 64.55 214.58 L 65.46 209.06 L 66.37 210.90 L 67.28 207.86 L 68.19 206.95 L 69.10 204.66 L 70.01 206.41 L 70.92 203.25 L 71.83 202.00 L 72.74 201.52 L 73.65 199.39 L 74.56 199.40 L 75.47 197.79 L 76.38 197.15 L 77.29 195.54 L 78.20 193.69 L 79.11 195.75 L 80.02 189.12 L 80.93 192.83 L 81.84 190.70 L 82.75 186.37 L 83.66 188.62 L 84.57 188.99 L 85.48 183.92 L 86.39 184.92 L 87.30 182.57 L 88.21 183.84 L 89.12 180.64 L 90.03 179.02 L 90.94 181.15 L 91.85 177.45 L 92.76 177.74 L 93.67 175.02 L 94.58 175.62 L 95.49 173.51 L 96.40 174.09 L 97.31 170.26 L 98.22 172.35 L 99.13 168.39 L 100.04 169.70 L 100.95 166.89 L 101.86 168.14 L 102.77 166.10 L 103.68 163.88 L 104.59 165.11 L 105.50 163.22 L 106.41 161.20 L 107.32 160.76 L 108.23 163.07 L 109.14 157.07 L 110.05 159.25 L 110.96 157.13 L 111.87 155.52 L 112.78 158.67 L 113.69 152.41 L 114.60 154.70 L 115.51 154.23 L 116.42 152.13 L 117.33 150.02 L 118.24 154.30 L 119.15 146.36 L 120.06 150.45 L 120.97 149.44 L 121.88 146.74 L 122.79 147.54 L 123.70 144.28 L 124.61 148.02 L 125.52 142.04 L 126.43 144.30 L 127.34 143.92 L 128.25 142.61 L 129.16 141.62 L 130.07 141.14 L 130.98 139.70 L 131.89 139.59 L 132.80 141.06 L 133.71 137.68 L 134.62 137.40 L 135.53 137.38 L 136.44 136.30 L 137.35 136.53 L 138.26 137.27 L 139.17 133.54 L 140.08 134.55 L 140.99 134.16 L 141.90 135.02 L 142.81 130.64 L 143.72 133.95 L 144.63 130.75 L 145.54 133.22 L 146.45 130.05 L 147.36 132.31 L 148.27 128.22 L 149.18 130.98 L 150.09 130.88 L 151.00 127.91 L 151.91 128.47 L 152.82 129.27 L 153.73 126.78 L 154.64 129.65 L 155.55 125.81 L 156.46 127.68 L 157.37 126.92 L 158.28 125.90 L 159.19 127.50 L 160.10 124.57 L 161.01 127.05 L 161.92 125.04 L 162.83 125.82 L 163.74 125.93 L 164.65 124.23 L 165.56 126.54 L 166.47 123.45 L 167.38 126.58 L 168.29 121.42 L 169.20 127.94 L 170.11 122.53 L 171.02 124.36 L 171.93 123.97 L 172.84 125.68 L 173.75 124.50 L 174.66 124.46 L 175.57 123.02 L 176.48 124.63 L 177.39 123.96 L 178.30 126.48 L 179.21 123.04 L 180.12 124.96 L 181.03 124.45 L 181.94 125.32 L 182.85 123.26 L 183.76 126.75 L 184.67 123.65 L 185.58 126.23 L 186.49 124.99 L 187.40 127.60 L 188.31 123.30 L 189.22 127.55 L 190.13 126.95 L 191.04 126.28 L 191.95 127.64 L 192.86 125.52 L 193.77 127.60 L 194.68 127.98 L 195.59 128.66 L 196.50 126.87 L 197.41 130.89 L 198.32 128.24 L 199.23 129.30 L 200.14 130.73 L 201.05 131.03 L 201.96 129.12 L 202.87 131.80 L 203.78 131.35 L 204.69 132.11 L 205.60 133.72 L 206.51 130.98 L 207.42 135.04 L 208.33 134.04 L 209.24 134.31 L 210.15 135.51 L 211.06 135.50 L 211.97 136.59 L 212.88 137.30 L 213.79 136.57 L 214.70 138.88 L 215.61 137.36 L 216.52 141.30 L 217.43 138.41 L 218.34 141.20 L 219.25 141.55 L 220.16 141.65 L 221.07 143.12 L 221.98 141.66 L 222.89 144.79 L 223.80 145.81 L 224.71 144.92 L 225.62 145.11 L 226.53 149.56 L 227.44 146.15 L 228.35 148.98 L 229.26 147.56 L 230.17 151.68 L 231.08 150.34 L 231.99 151.05 L 232.90 152.22 L 233.81 154.78 L 234.72 154.31 L 235.63 155.08 L 236.54 154.96 L 237.45 158.46 L 238.36 155.68 L 239.27 159.24 L 240.18 158.96 L 241.09 161.42 L 242.00 161.35 L 242.91 162.46 L 243.82 161.58 L 244.73 167.24 L 245.64 162.10 L 246.55 168.16 L 247.46 165.46 L 248.37 171.09 L 249.28 164.72 L 250.19 174.44 L 251.10 168.03 L 252.01 173.78 L 252.92 173.00 L 253.83 173.78 L 254.74 173.03 L 255.65 178.95 L 256.56 175.69 L 257.47 179.43 L 258.38 178.06 L 259.29 180.04 L 260.20 183.53 L 261.11 180.55 L 262.02 184.79 L 262.93 182.55 L 263.84 188.48 L 264.75 185.96 L 265.66 188.22 L 266.57 187.43 L 267.48 192.06 L 268.39 189.54 L 269.30 193.22 L 270.21 191.74 L 271.12 196.78 L 272.03 193.64 L 272.94 198.63 L 273.85 197.91 L 274.76 199.05 L 275.67 199.58 L 276.58 202.52 L 277.49 201.62 L 278.40 205.05 L 279.31 204.25 L 280.22 205.47 L 281.13 208.02 L 282.04 208.32 L 282.95 208.00 L 283.86 211.07 L 284.77 211.47 L 285.68 213.15 L 286.59 214.56 L 287.50 214.08 L 288.41 217.29 L 289.32 217.67 L 290.23 217.91 L 291.14 221.41 L 292.05 220.62 L 292.96 221.59 L 293.87 222.54 L 294.78 225.71 L 295.69 224.11 L 296.60 227.54 L 297.51 225.96 L 298.42 232.25 L 299.33 227.17 L 300.24 234.50 L 301.15 230.53 L 302.06 233.57 L 302.97 235.06 L 303.88 234.78 L 304.79 238.00 L 305.70 236.65 L 306.61 240.50 L 307.52 241.92 L 308.43 239.77 L 309.34 243.33 L 310.25 241.81 L 311.16 246.07 L 312.07 246.17 L 312.98 244.80 L 313.89 250.65 L 314.80 247.28 L 315.71 251.07 L 316.62 250.58 L 317.53 253.11 L 318.44 252.01 L 319.35 255.73 L 320.26 255.30 L 321.17 257.67 L 322.08 254.40 L 322.99 262.44 L 323.90 256.23 L 324.81 261.16 L 325.72 262.25 L 326.63 262.38 L 327.54 264.10 L 328.45 263.15 L 329.36 268.23 L 330.27 266.13 L 331.18 267.04 L 332.09 267.17 L 333.00 269.99 L 333.91 270.47 L 334.82 271.57 L 335.73 271.07 L 336.64 274.35 L 337.55 272.27 L 338.46 275.92 L 339.37 275.82 L 340.28 276.48 L 341.19 278.83 L 342.10 276.28 L 343.01 280.63 L 343.92 280.28 L 344.83 278.76 L 345.74 285.24 L 346.65 280.50 L 347.56 283.45 L 348.47 284.19 L 349.38 285.12 L 350.29 284.82 L 351.20 286.07 L 352.11 287.26 L 353.02 287.57 L 353.93 287.65 L 354.84 291.47 L 355.75 288.55 L 356.66 290.67 L 357.57 289.57 L 358.48 295.34 L 359.39 290.35 L 360.30 293.96 L 361.21 293.39 L 362.12 295.76 L 363.03 292.90 L 363.94 296.90 L 364.85 297.22 L 365.76 295.04 L 366.67 297.86 L 367.58 299.26 L 368.49 296.24 L 369.40 299.12 L 370.31 300.08 L 371.22 299.31 L 372.13 299.39 L 373.04 302.32 L 373.95 300.96 L 374.86 301.71 L 375.77 303.07 L 376.68 301.26 L 377.59 303.46 L 378.50 303.07 L 379.41 303.60 L 380.32 303.97 L 381.23 302.66 L 382.14 306.17 L 383.05 302.46 L 383.96 308.04 L 384.87 303.81 L 385.78 306.58 L 386.69 304.53 L 387.60 307.36 L 388.51 305.96 L 389.42 306.77 L 390.33 307.29 L 391.24 306.57 L 392.15 308.47 L 393.06 305.46 L 393.97 310.28 L 394.88 304.76 L 395.79 308.78 L 396.70 306.73 L 397.61 308.91 L 398.52 307.52 L 399.43 308.58 L 400.34 306.33 L 401.25 309.60 L 402.16 305.97 L 403.07 311.23 L 403.98 305.10 L 404.89 310.03 L 405.80 305.80 L 406.71 309.17 L 407.62 307.26 L 408.53 308.05 L 409.44 306.33 L 410.35 306.86 L 411.26 308.61 L 412.17 305.68 L 413.08 307.51 L 413.99 308.47 L 414.90 304.05 L 415.81 308.45 L 416.72 303.93 L 417.63 306.76 L 418.54 307.38 L 419.45 302.46 L 420.36 306.26 L 421.27 304.95 L 422.18 303.88 L 423.09 304.21 L 424.00 305.12 L 424.91 300.76 L 425.82 306.52 L 426.73 298.50 L 427.64 305.19 L 428.55 299.12 L 429.46 303.06 L 430.37 302.02 L 431.28 298.52 L 432.19 301.92 L 433.10 297.92 L 434.01 299.33 L 434.92 300.08 L 435.83 295.34 L 436.74 299.41 L 437.65 295.35 L 438.56 298.19 L 439.47 294.74 L 440.38 297.52 L 441.29 292.05 L 442.20 297.59 L 443.11 289.49 L 444.02 294.66 L 444.93 291.96 L 445.84 291.33 L 446.75 292.14 L 447.66 289.23 L 448.57 288.64 L 449.48 290.74 L 450.39 286.96 L 451.30 287.00 L 452.21 287.88 L 453.12 284.43 L 454.03 287.23 L 454.94 282.43 L 455.85 283.31 L 456.76 284.41 L 457.67 280.55 L 458.58 281.79 L 459.49 281.54 L 460.40 278.80 L 461.31 277.93 L 462.22 278.77 L 463.13 275.84 L 464.04 278.93 L 464.95 271.32 L 465.86 277.50 L 466.77 271.01 L 467.68 274.35 L 468.59 269.91 L 469.50 273.02 L 470.41 268.31 L 471.32 267.80 L 472.23 269.97 L 473.14 265.00 L 474.05 266.48 L 474.96 265.91 L 475.87 264.17 L 476.78 262.55 L 477.69 261.16 L 478.60 261.69 L 479.51 260.47 L 480.42 257.98 L 481.33 259.26 L 482.24 256.06 L 483.15 255.03 L 484.06 255.57 L 484.97 253.40 L 485.88 252.37 L 486.79 252.84 L 487.70 248.96 L 488.61 251.33 L 489.52 247.07 L 490.43 248.94 L 491.34 243.85 L 492.25 247.02 L 493.16 243.92 L 494.07 242.82 L 494.98 240.81 L 495.89 242.82 L 496.80 237.82 L 497.71 240.62 L 498.62 234.51 L 499.53 238.63 L 500.44 233.33 L 501.35 234.12 L 502.26 233.56 L 503.17 231.89 L 504.08 229.51 L 504.99 230.53 L 505.90 228.57 L 506.81 226.56 L 507.72 226.41 L 508.63 225.15 L 509.54 223.69 L 510.45 221.82 L 511.36 221.94 L 512.27 220.46 L 513.18 218.33 L 514.09 218.80 L 515.00 214.67 L 515.91 217.12 L 516.82 214.23 L 517.73 212.72 L 518.64 213.33 L 519.55 208.53 L 520.46 212.04 L 521.37 208.13 L 522.28 207.94 L 523.19 204.57 L 524.10 205.94 L 525.01 204.14 L 525.92 203.71 L 526.83 202.05 L 527.74 199.38 L 528.65 201.23 L 529.56 196.46 L 530.47 199.89 L 531.38 193.47 L 532.29 195.49 L 533.20 194.77 L 534.11 192.34 L 535.02 190.01 L 535.93 192.50 L 536.84 187.73 L 537.75 187.93 L 538.66 188.93 L 539.57 184.56 L 540.48 185.02 L 541.39 185.13 L 542.30 182.48 L 543.21 180.67 L 544.12 181.15 L 545.03 179.18 L 545.94 178.64 L 546.85 178.09 L 547.76 175.14 L 548.67 175.76 L 549.58 173.75 L 550.49 174.25 L 551.40 171.80 L 552.31 173.54 L 553.22 166.86 L 554.13 171.59 L 555.04 166.16 L 555.95 169.51 L 556.86 164.50 L 557.77 165.76 L 558.68 162.85 L 559.59 165.72 L 560.50 161.60 L 561.41 161.99 L 562.32 158.62 L 563.23 161.81 L 564.14 158.11 L 565.05 158.99 L 565.96 155.95 L 566.87 155.32 L 567.78 155.98 L 568.69 153.60 L 569.60 154.80 L 570.51 151.95 L 571.42 151.87 L 572.33 150.07 L 573.24 151.89 L 574.15 147.10 L 575.06 149.42 L 575.97 148.20 L 576.88 146.19 L 577.79 145.23 L 578.70 146.29 L 579.61 145.39 L 580.52 145.03 L 581.43 140.82 L 582.34 144.65 L 583.25 140.09 L 584.16 142.46 L 585.07 139.35 L 585.98 140.55 L 586.89 138.31 L 587.80 139.91 L 588.71 135.75 L 589.62 139.70 L 590.53 134.85 L 591.44 137.72 L 592.35 133.71 L 593.26 135.98 L 594.17 134.63 L 595.08 133.83 L 595.99 132.31 L 596.90 135.23 L 597.81 128.89 L 598.72 135.29 L 599.63 128.68 L 600.54 130.97 L 601.45 132.02 L 602.36 130.24 L 603.27 128.43 L 604.18 129.34 L 605.09 128.94 L 606.00 127.85 L 606.91 129.84 L 607.82 126.56 L 608.73 129.19 L 609.64 124.84 L 610.55 127.59 L 611.46 127.26 L 612.37 125.46 L 613.28 125.70 L 614.19 126.67 L 615.10 124.58 L 616.01 126.26 L 616.92 123.77 L 617.83 125.23 L 618.74 125.04 L 619.65 125.13 L 620.56 122.74 L 621.47 124.89 L 622.38 124.81 L 623.29 124.11 L 624.20 122.89 L 625.11 124.80 L 626.02 123.78 L 626.93 123.10 L 627.84 123.07 L 628.75 125.18 L 629.66 122.44 L 630.57 124.35 L 631.48 122.42 L 632.39 124.91 L 633.30 124.09 L 634.21 124.08 L 635.12 123.58 L 636.03 123.49 L 636.94 125.96 L 637.85 122.71 L 638.76 124.70 L 639.67 125.23 L 640.58 123.52 L 641.49 124.00 L 642.40 126.06 L 643.31 126.67 L 644.22 124.08 L 645.13 126.61 L 646.04 126.49 L 646.95 124.05 L 647.86 129.23 L 648.77 125.62 L 649.68 128.11 L 650.59 126.21 L 651.50 128.31 L 652.41 127.85 L 653.32 128.36 L 654.23 130.24 L 655.14 128.12 L 656.05 129.77 L 656.96 131.10 L 657.87 129.62 L 658.78 131.99 L 659.69 130.56 L 660.60 132.39 L 661.51 134.05 L 662.42 130.30 L 663.33 135.11 L 664.24 133.24 L 665.15 135.57 L 666.06 133.53 L 666.97 137.37 L 667.88 135.21 L 668.79 137.14 L 669.70 137.54 L 670.61 138.46 L 671.52 137.55 L 672.43 139.20 L 673.34 140.67 L 674.25 140.18 L 675.16 141.95 L 676.07 140.97 L 676.98 142.64 L 677.89 144.27 L 678.80 143.45 L 679.71 145.87 L 680.62 144.60 L 681.53 147.17 L 682.44 146.28 L 683.35 147.67 L 684.26 150.35 L 685.17 148.65 L 686.08 150.22 L 686.99 150.98 L 687.90 152.48 L 688.81 152.38 L 689.72 152.94 L 690.63 155.61 L 691.54 153.23 L 692.45 159.59 L 693.36 154.45 L 694.27 160.67 L 695.18 157.81 L 696.09 159.29 L 697.00 160.07 L 697.91 162.95 L 698.82 161.25 L 699.73 164.71 L 700.64 164.64 L 701.55 166.00 L 702.46 165.88 L 703.37 166.28 L 704.28 169.49 L 705.19 168.09 L 706.10 171.68 L 707.01 169.90 L 707.92 173.37 L 708.83 174.16 L 709.74 174.96 L 710.65 174.26 L 711.56 176.95 L 712.47 177.89 L 713.38 177.97 L 714.29 179.86 L 715.20 181.76 L 716.11 180.81 L 717.02 182.62 L 717.93 187.29 L 718.84 182.21 L 719.75 187.95 L 720.66 185.25 L 721.57 190.39 L 722.48 188.59 L 723.39 190.90 L 724.30 191.58 L 725.21 191.95 L 726.12 195.58 L 727.03 194.61 L 727.94 197.27 L 728.85 197.19 L 729.76 196.82 L 730.67 199.89 L 731.58 200.64 L 732.49 203.05 L 733.40 203.65 L 734.31 202.23 L 735.22 207.11 L 736.13 206.05 L 737.04 209.16 L 737.95 205.58 L 738.86 212.82 L 739.77 209.83 L 740.68 213.36 L 741.59 212.84 L 742.50 214.55 L 743.41 215.63 L 744.32 218.41 L 745.23 217.55 L 746.14 217.03 L 747.05 222.03 L 747.96 221.21 L 748.87 222.00 L 749.78 223.79 L 750.69 226.40 L 751.60 225.32 L 752.51 228.44 L 753.42 228.44 L 754.33 227.89 L 755.24 231.07 L 756.15 233.42 L 757.06 231.23 L 757.97 234.42 L 758.88 235.13 L 759.79 236.80 L 760.70 236.97 L 761.61 239.26 L 762.52 238.82 L 763.43 242.24 L 764.34 241.33 L 765.25 242.07 L 766.16 245.58 L 767.07 245.59 L 767.98 245.00 L 768.89 248.77 L 769.80 247.00 L 770.71 250.41 L 771.62 250.28 L 772.53 252.76 L 773.44 252.71 L 774.35 253.09 L 775.26 255.98 L 776.17 254.59 L 777.08 257.99 L 777.99 257.48 L 778.90 258.21 L 779.81 260.31 L 780.72 262.45 L 781.63 259.64 L 782.54 264.61 L 783.45 263.28 L 784.36 265.68 L 785.27 265.95 L 786.18 267.92 L 787.09 265.99 L 788.00 269.67 L 788.91 270.05 L 789.82 268.26 L 790.73 274.34 L 791.64 272.20 L 792.55 272.90 L 793.46 273.83 L 794.37 275.80 L 795.28 275.60 L 796.19 277.31 L 797.10 278.13 L 798.01 276.89 L 798.92 281.38 L 799.83 281.06 L 800.74 278.59 L 801.65 283.78 L 802.56 282.73 L 803.47 282.47 L 804.38 283.44 L 805.29 285.92 L 806.20 285.62 L 807.11 286.74 L 808.02 288.44 L 808.93 286.48 L 809.84 287.52 L 810.75 290.21 L 811.66 291.10 L 812.57 291.67 L 813.48 288.93 L 814.39 293.42 L 815.30 292.34 L 816.21 292.37 L 817.12 294.10 L 818.03 296.05 L 818.94 293.24 L 819.85 296.00 L 820.76 298.55 L 821.67 293.60 L 822.58 298.30 L 823.49 298.40 L 824.40 299.51 L 825.31 297.45 L 826.22 298.85 L 827.13 300.80 L 828.04 300.44 L 828.95 300.05 L 829.86 300.47 L 830.77 302.27 L 831.68 301.98 L 832.59 300.44 L 833.50 304.09 L 834.41 303.61 L 835.32 304.03 L 836.23 300.18 L 837.14 307.79 L 838.05 302.35 L 838.96 306.75 L 839.87 302.31 L 840.78 307.90 L 841.69 302.62 L 842.60 306.21 L 843.51 306.71 L 844.42 304.89 L 845.33 306.37 L 846.24 306.63 L 847.15 307.55 L 848.06 304.95 L 848.97 308.44 L 849.88 306.29 L 850.79 306.61 L 851.70 308.99 L 852.61 306.06 L 853.52 307.53 L 854.43 307.12 L 855.34 308.59 L 856.25 304.85 L 857.16 308.10 L 858.07 307.16 L 858.98 309.66 L 859.89 306.03 L 860.80 307.89 L 861.71 306.35 L 862.62 307.80 L 863.53 307.20 L 864.44 307.41 L 865.35 304.47 L 866.26 309.10 L 867.17 305.48 L 868.08 306.88 L 868.99 304.87 L 869.90 308.16 L 870.81 305.22 L 871.72 305.68 L 872.63 303.64 L 873.54 306.74 L 874.45 303.32 L 875.36 304.62 L 876.27 304.33 L 877.18 305.00 L 878.09 303.29 L 879.00 302.00 L 879.91 304.04 L 880.82 301.49 L 881.73 301.82 L 882.64 302.35 L 883.55 300.08 L 884.46 301.54 L 885.37 299.29 L 886.28 302.14 L 887.19 297.45 L 888.10 302.05 L 889.01 296.72 L 889.92 298.39 L 890.83 295.84 L 891.74 299.43 L 892.65 295.95 L 893.56 294.11 L 894.47 296.67 L 895.38 295.46 L 896.29 293.68 L 897.20 293.46 L 898.11 293.99 L 899.02 289.71 L 899.93 294.89 L 900.84 288.11 L 901.75 292.31 L 902.66 287.07 L 903.57 293.27 L 904.48 284.11 L 905.39 289.59 L 906.30 285.96 L 907.21 286.89 L 908.12 284.78 L 909.03 285.39 L 909.94 283.03 L 910.85 282.63 L 911.76 284.33 L 912.67 279.69 L 913.58 282.74 L 914.49 278.23 L 915.40 279.27 L 916.31 277.67 L 917.22 278.60 L 918.13 275.64 L 919.04 275.34 L 919.95 276.08 L 920.86 271.49 L 921.77 275.15 L 922.68 270.98 L 923.59 271.33 L 924.50 271.20 L 925.41 269.07 L 926.32 266.33 L 927.23 269.25 L 928.14 266.57 L 929.05 264.81 L 929.96 263.88 L 930.87 262.92 L 931.78 265.64 L 932.69 258.16 L 933.60 262.02 L 934.51 259.65 L 935.42 258.65 L 936.33 256.63 L 937.24 257.29 L 938.15 254.26 L 939.06 254.59 L 939.97 251.55 L 940.88 254.65 L 941.79 249.89 L 942.70 250.60 L 943.61 249.06 L 944.52 248.69 L 945.43 245.67 L 946.34 245.74 L 947.25 246.35 L 948.16 241.77 L 949.07 242.52 L 949.98 240.67 L 950.89 242.31 L 951.80 238.40 L 952.71 236.97 L 953.62 238.46 L 954.53 233.27 L 955.44 236.37 L 956.35 233.68 L 957.26 231.47 L 958.17 232.36 L 959.08 229.55 L 959.99 228.94 L 960.90 228.76 L 961.81 224.49 L 962.72 226.49 L 963.63 224.33 L 964.54 222.36 L 965.45 223.38 L 966.36 220.39 L 967.27 219.83 L 968.18 218.31 L 969.09 216.66 L 970.00 216.73" fill="none" stroke="#1f77b4" stroke-width="2"/>
  <!-- output (solid orange, optional) -->
  <path d="M 60.00 81.67 L 60.91 81.97 L 61.82 398.33 L 62.73 228.08 L 63.64 321.44 L 64.55 271.93 L 65.46 296.41 L 66.37 279.31 L 67.28 289.81 L 68.19 288.24 L 69.10 294.49 L 70.01 277.92 L 70.92 289.16 L 71.83 289.56 L 72.74 285.64 L 73.65 291.08 L 74.56 284.40 L 75.47 286.89 L 76.38 283.94 L 77.29 286.48 L 78.20 290.43 L 79.11 272.27 L 80.02 303.29 L 80.93 275.83 L 81.84 281.41 L 82.75 299.46 L 83.66 280.39 L 84.57 271.92 L 85.48 294.22 L 86.39 282.26 L 87.30 289.29 L 88.21 275.87 L 89.12 287.71 L 90.03 290.70 L 90.94 272.50 L 91.85 287.32 L 92.76 279.61 L 93.67 288.96 L 94.58 279.53 L 95.49 285.52 L 96.40 276.30 L 97.31 292.05 L 98.22 274.41 L 99.13 291.01 L 100.04 277.85 L 100.95 287.99 L 101.86 275.27 L 102.77 281.19 L 103.68 288.15 L 104.59 275.69 L 105.50 280.86 L 106.41 286.89 L 107.32 283.99 L 108.23 265.58 L 109.14 294.28 L 110.05 276.69 L 110.96 283.55 L 111.87 287.54 L 112.78 264.62 L 113.69 295.06 L 114.60 277.14 L 115.51 274.94 L 116.42 281.97 L 117.33 289.15 L 118.24 260.19 L 119.15 300.44 L 120.06 272.72 L 120.97 273.90 L 121.88 284.75 L 122.79 275.80 L 123.70 289.91 L 124.61 264.50 L 125.52 294.13 L 126.43 277.17 L 127.34 275.28 L 128.25 278.65 L 129.16 280.34 L 130.07 279.15 L 130.98 283.52 L 131.89 280.42 L 132.80 268.45 L 133.71 283.99 L 134.62 282.07 L 135.53 278.70 L 136.44 281.47 L 137.35 276.89 L 138.26 269.47 L 139.17 287.44 L 140.08 278.62 L 140.99 277.84 L 141.90 270.08 L 142.81 291.99 L 143.72 270.51 L 144.63 285.92 L 145.54 269.34 L 146.45 284.72 L 147.36 269.47 L 148.27 290.23 L 149.18 272.35 L 150.09 270.68 L 151.00 285.34 L 151.91 280.10 L 152.82 273.61 L 153.73 285.84 L 154.64 267.75 L 155.55 287.74 L 156.46 275.53 L 157.37 278.28 L 158.28 282.55 L 159.19 272.08 L 160.10 287.33 L 161.01 272.07 L 161.92 282.32 L 162.83 276.80 L 163.74 275.21 L 164.65 283.93 L 165.56 270.01 L 166.47 286.77 L 167.38 268.39 L 168.29 297.02 L 169.20 259.67 L 170.11 289.88 L 171.02 279.22 L 171.93 281.21 L 172.84 271.38 L 173.75 277.99 L 174.66 278.21 L 175.57 286.49 L 176.48 277.58 L 177.39 281.65 L 178.30 267.72 L 179.21 287.64 L 180.12 277.33 L 181.03 280.82 L 181.94 276.56 L 182.85 289.00 L 183.76 270.15 L 184.67 288.64 L 185.58 275.08 L 186.49 283.20 L 187.40 269.65 L 188.31 295.27 L 189.22 272.59 L 190.13 277.42 L 191.04 282.72 L 191.95 276.64 L 192.86 290.37 L 193.77 280.38 L 194.68 280.07 L 195.59 278.16 L 196.50 290.29 L 197.41 269.66 L 198.32 286.81 L 199.23 283.09 L 200.14 277.36 L 201.05 278.10 L 201.96 291.37 L 202.87 278.80 L 203.78 283.96 L 204.69 282.40 L 205.60 276.12 L 206.51 294.52 L 207.42 274.52 L 208.33 283.17 L 209.24 284.77 L 210.15 281.19 L 211.06 284.47 L 211.97 281.63 L 212.88 281.04 L 213.79 288.68 L 214.70 279.15 L 215.61 291.35 L 216.52 272.78 L 217.43 292.88 L 218.34 280.93 L 219.25 282.84 L 220.16 286.27 L 221.07 281.95 L 221.98 294.32 L 222.89 280.79 L 223.80 279.25 L 224.71 288.62 L 225.62 291.92 L 226.53 271.18 L 227.44 294.94 L 228.35 283.52 L 229.26 296.16 L 230.17 277.51 L 231.08 289.84 L 231.99 290.66 L 232.90 288.89 L 233.81 279.31 L 234.72 286.96 L 235.63 287.62 L 236.54 293.40 L 237.45 278.74 L 238.36 299.63 L 239.27 284.75 L 240.18 291.65 L 241.09 283.06 L 242.00 288.89 L 242.91 288.03 L 243.82 298.52 L 244.73 272.04 L 245.64 306.74 L 246.55 278.10 L 247.46 299.02 L 248.37 272.92 L 249.28 314.75 L 250.19 265.56 L 251.10 307.69 L 252.01 281.09 L 252.92 291.42 L 253.83 293.01 L 254.74 303.27 L 255.65 275.81 L 256.56 300.37 L 257.47 285.31 L 258.38 299.24 L 259.29 294.24 L 260.20 280.68 L 261.11 303.83 L 262.02 286.11 L 262.93 305.09 L 263.84 277.92 L 264.75 298.56 L 265.66 292.17 L 266.57 303.02 L 267.48 283.30 L 268.39 304.03 L 269.30 289.68 L 270.21 304.57 L 271.12 282.62 L 272.03 306.93 L 272.94 285.27 L 273.85 295.95 L 274.76 296.10 L 275.67 299.71 L 276.58 289.69 L 277.49 301.47 L 278.40 288.71 L 279.31 299.93 L 280.22 299.69 L 281.13 291.93 L 282.04 296.95 L 282.95 305.42 L 283.86 294.79 L 284.77 299.23 L 285.68 296.43 L 286.59 295.18 L 287.50 304.60 L 288.41 293.19 L 289.32 297.77 L 290.23 303.12 L 291.14 290.01 L 292.05 301.17 L 292.96 302.43 L 293.87 303.76 L 294.78 292.49 L 295.69 308.21 L 296.60 295.48 L 297.51 311.10 L 298.42 282.13 L 299.33 317.51 L 300.24 282.66 L 301.15 311.73 L 302.06 301.14 L 302.97 299.28 L 303.88 307.46 L 304.79 295.74 L 305.70 309.91 L 306.61 294.66 L 307.52 293.09 L 308.43 311.71 L 309.34 297.97 L 310.25 312.97 L 311.16 295.27 L 312.07 301.04 L 312.98 315.13 L 313.89 288.31 L 314.80 313.66 L 315.71 298.48 L 316.62 307.44 L 317.53 299.29 L 318.44 311.65 L 319.35 296.70 L 320.26 305.19 L 321.17 297.82 L 322.08 322.28 L 322.99 282.74 L 323.90 323.79 L 324.81 301.79 L 325.72 301.45 L 326.63 306.50 L 327.54 302.52 L 328.45 313.61 L 329.36 290.52 L 330.27 307.98 L 331.18 308.38 L 332.09 313.21 L 333.00 302.69 L 333.91 305.39 L 334.82 304.55 L 335.73 312.67 L 336.64 299.40 L 337.55 316.37 L 338.46 300.89 L 339.37 306.52 L 340.28 307.85 L 341.19 299.56 L 342.10 318.92 L 343.01 299.18 L 343.92 305.96 L 344.83 319.28 L 345.74 287.36 L 346.65 318.78 L 347.56 306.69 L 348.47 306.98 L 349.38 306.19 L 350.29 312.24 L 351.20 309.53 L 352.11 307.04 L 353.02 309.47 L 353.93 313.17 L 354.84 295.58 L 355.75 316.11 L 356.66 308.04 L 357.57 318.08 L 358.48 289.24 L 359.39 321.18 L 360.30 304.40 L 361.21 311.17 L 362.12 301.30 L 363.03 320.88 L 363.94 301.61 L 364.85 303.06 L 365.76 318.64 L 366.67 305.80 L 367.58 300.94 L 368.49 320.99 L 369.40 307.60 L 370.31 305.00 L 371.22 312.08 L 372.13 314.33 L 373.04 300.33 L 373.95 310.57 L 374.86 308.76 L 375.77 303.41 L 376.68 315.92 L 377.59 305.66 L 378.50 310.00 L 379.41 309.04 L 380.32 308.92 L 381.23 318.19 L 382.14 300.13 L 383.05 322.85 L 383.96 292.95 L 384.87 318.40 L 385.78 304.22 L 386.69 317.20 L 387.60 302.47 L 388.51 311.63 L 389.42 308.17 L 390.33 306.32 L 391.24 311.35 L 392.15 301.50 L 393.06 319.32 L 393.97 292.78 L 394.88 324.59 L 395.79 302.46 L 396.70 314.51 L 397.61 302.55 L 398.52 310.71 L 399.43 304.90 L 400.34 317.78 L 401.25 299.34 L 402.16 319.81 L 403.07 289.94 L 403.98 324.44 L 404.89 296.25 L 405.80 319.80 L 406.71 300.25 L 407.62 310.50 L 408.53 305.42 L 409.44 314.43 L 410.35 310.61 L 411.26 299.84 L 412.17 315.46 L 413.08 304.04 L 413.99 297.52 L 414.90 321.28 L 415.81 295.08 L 416.72 319.28 L 417.63 301.79 L 418.54 296.74 L 419.45 322.92 L 420.36 299.74 L 421.27 305.34 L 422.18 309.56 L 423.09 305.74 L 424.00 298.54 L 424.91 321.06 L 425.82 286.29 L 426.73 329.40 L 427.64 289.20 L 428.55 321.09 L 429.46 296.28 L 430.37 299.59 L 431.28 316.74 L 432.19 294.71 L 433.10 314.52 L 434.01 303.64 L 434.92 296.47 L 435.83 320.23 L 436.74 294.08 L 437.65 313.83 L 438.56 294.46 L 439.47 310.64 L 440.38 291.51 L 441.29 318.93 L 442.20 284.06 L 443.11 326.24 L 444.02 293.28 L 444.93 304.76 L 445.84 304.45 L 446.75 295.98 L 447.66 308.43 L 448.57 307.71 L 449.48 291.73 L 450.39 308.91 L 451.30 304.45 L 452.21 295.17 L 453.12 310.26 L 454.03 289.99 L 454.94 312.63 L 455.85 303.08 L 456.76 292.25 L 457.67 309.34 L 458.58 297.60 L 459.49 294.22 L 460.40 304.80 L 461.31 304.79 L 462.22 295.08 L 463.13 306.59 L 464.04 284.00 L 464.95 321.91 L 465.86 281.74 L 466.77 313.20 L 467.68 288.98 L 468.59 308.74 L 469.50 285.74 L 470.41 306.91 L 471.32 304.29 L 472.23 286.41 L 473.14 308.95 L 474.05 294.91 L 474.96 292.42 L 475.87 296.52 L 476.78 299.87 L 477.69 301.95 L 478.60 293.03 L 479.51 294.02 L 480.42 302.18 L 481.33 288.95 L 482.24 300.99 L 483.15 300.76 L 484.06 291.58 L 484.97 297.75 L 485.88 297.38 L 486.79 288.51 L 487.70 304.24 L 488.61 284.56 L 489.52 302.31 L 490.43 285.42 L 491.34 307.88 L 492.25 283.54 L 493.16 294.67 L 494.07 294.44 L 494.98 299.36 L 495.89 281.50 L 496.80 303.29 L 497.71 280.89 L 498.62 308.92 L 499.53 279.05 L 500.44 302.45 L 501.35 291.36 L 502.26 287.92 L 503.17 290.70 L 504.08 297.54 L 504.99 285.08 L 505.90 289.53 L 506.81 294.20 L 507.72 288.39 L 508.63 288.80 L 509.54 290.34 L 510.45 294.20 L 511.36 286.80 L 512.27 288.47 L 513.18 293.77 L 514.09 284.40 L 515.00 301.01 L 515.91 280.40 L 516.82 290.06 L 517.73 291.85 L 518.64 281.66 L 519.55 302.09 L 520.46 275.54 L 521.37 290.95 L 522.28 285.29 L 523.19 297.68 L 524.10 283.23 L 525.01 286.72 L 525.92 282.51 L 526.83 285.26 L 527.74 293.73 L 528.65 276.62 L 529.56 297.03 L 530.47 270.98 L 531.38 300.76 L 532.29 282.79 L 533.20 280.33 L 534.11 287.51 L 535.02 294.23 L 535.93 273.68 L 536.84 294.21 L 537.75 286.66 L 538.66 274.64 L 539.57 292.95 L 540.48 284.01 L 541.39 277.10 L 542.30 285.79 L 543.21 289.80 L 544.12 280.89 L 545.03 285.83 L 545.94 282.73 L 546.85 279.75 L 547.76 290.34 L 548.67 280.79 L 549.58 286.17 L 550.49 277.35 L 551.40 285.28 L 552.31 269.59 L 553.22 301.53 L 554.13 268.96 L 555.04 293.93 L 555.95 269.23 L 556.86 291.91 L 557.77 279.15 L 558.68 290.07 L 559.59 268.33 L 560.50 286.11 L 561.41 278.50 L 562.32 292.18 L 563.23 268.80 L 564.14 284.45 L 565.05 274.23 L 565.96 286.30 L 566.87 284.76 L 567.78 275.92 L 568.69 284.39 L 569.60 272.66 L 570.51 283.89 L 571.42 279.54 L 572.33 284.96 L 573.24 269.92 L 574.15 292.38 L 575.06 274.66 L 575.97 277.03 L 576.88 283.94 L 577.79 284.98 L 578.70 274.65 L 579.61 275.48 L 580.52 273.30 L 581.43 293.02 L 582.34 267.24 L 583.25 289.07 L 584.16 271.74 L 585.07 285.45 L 585.98 274.85 L 586.89 283.82 L 587.80 271.08 L 588.71 291.07 L 589.62 265.21 L 590.53 289.18 L 591.44 269.60 L 592.35 289.01 L 593.26 272.93 L 594.17 277.42 L 595.08 278.89 L 595.99 284.49 L 596.90 265.03 L 597.81 298.09 L 598.72 259.10 L 599.63 293.79 L 600.54 278.23 L 601.45 269.75 L 602.36 277.36 L 603.27 285.23 L 604.18 277.83 L 605.09 277.85 L 606.00 281.91 L 606.91 268.58 L 607.82 285.19 L 608.73 268.41 L 609.64 291.17 L 610.55 273.89 L 611.46 274.11 L 612.37 282.76 L 613.28 279.87 L 614.19 272.98 L 615.10 283.53 L 616.01 272.80 L 616.92 285.70 L 617.83 276.37 L 618.74 276.46 L 619.65 275.06 L 620.56 287.79 L 621.47 274.90 L 622.38 274.66 L 623.29 278.09 L 624.20 284.50 L 625.11 273.30 L 626.02 278.77 L 626.93 282.34 L 627.84 282.40 L 628.75 270.41 L 629.66 285.95 L 630.57 275.22 L 631.48 286.32 L 632.39 272.55 L 633.30 277.53 L 634.21 278.05 L 635.12 281.43 L 636.03 282.54 L 636.94 269.26 L 637.85 288.45 L 638.76 278.04 L 639.67 275.99 L 640.58 286.69 L 641.49 285.11 L 642.40 274.67 L 643.31 272.49 L 644.22 288.52 L 645.13 275.66 L 646.04 277.85 L 646.95 293.29 L 647.86 265.70 L 648.77 287.88 L 649.68 275.67 L 650.59 288.35 L 651.50 278.47 L 652.41 283.20 L 653.32 282.51 L 654.23 274.14 L 655.14 288.48 L 656.05 281.53 L 656.96 276.53 L 657.87 287.45 L 658.78 276.71 L 659.69 287.54 L 660.60 280.01 L 661.51 273.49 L 662.42 297.68 L 663.33 273.49 L 664.24 287.19 L 665.15 277.22 L 666.06 292.01 L 666.97 273.64 L 667.88 289.21 L 668.79 281.82 L 669.70 283.10 L 670.61 281.49 L 671.52 290.35 L 672.43 284.80 L 673.34 280.29 L 674.25 286.98 L 675.16 280.93 L 676.07 290.54 L 676.98 285.21 L 677.89 280.12 L 678.80 289.04 L 679.71 279.66 L 680.62 291.17 L 681.53 281.11 L 682.44 290.63 L 683.35 287.32 L 684.26 276.77 L 685.17 291.06 L 686.08 286.93 L 686.99 287.46 L 687.90 283.81 L 688.81 289.32 L 689.72 291.14 L 690.63 281.04 L 691.54 299.59 L 692.45 268.74 L 693.36 303.06 L 694.27 273.12 L 695.18 294.55 L 696.09 291.55 L 697.00 292.56 L 697.91 281.70 L 698.82 296.85 L 699.73 282.84 L 700.64 288.83 L 701.55 286.78 L 702.46 293.12 L 703.37 296.59 L 704.28 284.21 L 705.19 297.97 L 706.10 283.55 L 707.01 299.52 L 707.92 285.79 L 708.83 287.33 L 709.74 288.79 L 710.65 298.81 L 711.56 289.70 L 712.47 290.52 L 713.38 296.21 L 714.29 291.74 L 715.20 287.21 L 716.11 298.86 L 717.02 294.90 L 717.93 274.78 L 718.84 309.87 L 719.75 283.77 L 720.66 305.45 L 721.57 282.79 L 722.48 299.47 L 723.39 292.87 L 724.30 295.50 L 725.21 299.94 L 726.12 285.90 L 727.03 297.97 L 727.94 289.51 L 728.85 296.55 L 729.76 305.22 L 730.67 294.50 L 731.58 296.89 L 732.49 289.90 L 733.40 293.18 L 734.31 307.89 L 735.22 286.97 L 736.13 299.61 L 737.04 288.74 L 737.95 315.67 L 738.86 281.47 L 739.77 305.07 L 740.68 291.83 L 741.59 301.50 L 742.50 298.53 L 743.41 299.11 L 744.32 290.13 L 745.23 301.70 L 746.14 311.37 L 747.05 289.81 L 747.96 301.12 L 748.87 303.35 L 749.78 299.91 L 750.69 291.86 L 751.60 304.64 L 752.51 293.65 L 753.42 300.29 L 754.33 310.03 L 755.24 298.70 L 756.15 291.98 L 757.06 310.98 L 757.97 299.52 L 758.88 302.08 L 759.79 299.18 L 760.70 304.71 L 761.61 298.24 L 762.52 307.22 L 763.43 294.31 L 764.34 305.94 L 765.25 308.15 L 766.16 294.67 L 767.07 300.93 L 767.98 310.64 L 768.89 295.58 L 769.80 311.86 L 770.71 298.84 L 771.62 305.78 L 772.53 297.91 L 773.44 304.31 L 774.35 308.28 L 775.26 297.96 L 776.17 311.89 L 777.08 298.64 L 777.99 307.50 L 778.90 309.27 L 779.81 303.25 L 780.72 296.98 L 781.63 318.67 L 782.54 296.29 L 783.45 309.52 L 784.36 301.60 L 785.27 305.71 L 786.18 300.13 L 787.09 316.54 L 788.00 301.17 L 788.91 304.44 L 789.82 319.96 L 790.73 290.88 L 791.64 308.22 L 792.55 309.46 L 793.46 309.39 L 794.37 303.33 L 795.28 309.52 L 796.19 304.84 L 797.10 305.15 L 798.01 317.02 L 798.92 296.41 L 799.83 302.99 L 800.74 321.69 L 801.65 296.94 L 802.56 307.45 L 803.47 313.42 L 804.38 312.41 L 805.29 302.75 L 806.20 308.76 L 807.11 306.74 L 808.02 301.26 L 808.93 316.47 L 809.84 314.67 L 810.75 303.43 L 811.66 302.31 L 812.57 302.95 L 813.48 322.22 L 814.39 300.53 L 815.30 310.28 L 816.21 313.68 L 817.12 307.44 L 818.03 299.81 L 818.94 319.09 L 819.85 306.74 L 820.76 295.54 L 821.67 326.66 L 822.58 303.09 L 823.49 305.52 L 824.40 302.13 L 825.31 316.61 L 826.22 311.48 L 827.13 303.14 L 828.04 307.72 L 828.95 312.50 L 829.86 312.55 L 830.77 304.74 L 831.68 308.64 L 832.59 319.55 L 833.50 301.06 L 834.41 305.79 L 835.32 305.37 L 836.23 329.01 L 837.14 287.78 L 838.05 320.29 L 838.96 297.00 L 839.87 323.68 L 840.78 293.55 L 841.69 324.82 L 842.60 305.80 L 843.51 304.20 L 844.42 315.60 L 845.33 308.30 L 846.24 307.82 L 847.15 303.51 L 848.06 319.00 L 848.97 299.97 L 849.88 312.77 L 850.79 311.53 L 851.70 298.51 L 852.61 315.50 L 853.52 307.49 L 854.43 310.00 L 855.34 301.86 L 856.25 323.03 L 857.16 304.61 L 858.07 309.82 L 858.98 295.44 L 859.89 315.69 L 860.80 304.80 L 861.71 313.08 L 862.62 304.33 L 863.53 307.11 L 864.44 305.16 L 865.35 321.03 L 866.26 293.92 L 867.17 313.47 L 868.08 304.50 L 868.99 314.75 L 869.90 294.88 L 870.81 310.24 L 871.72 306.24 L 872.63 316.35 L 873.54 297.24 L 874.45 314.97 L 875.36 305.88 L 876.27 305.74 L 877.18 300.12 L 878.09 307.82 L 879.00 313.05 L 879.91 299.41 L 880.82 311.67 L 881.73 307.54 L 882.64 302.16 L 883.55 312.60 L 884.46 301.81 L 885.37 311.94 L 886.28 293.15 L 887.19 316.91 L 888.10 288.08 L 889.01 315.34 L 889.92 302.95 L 890.83 314.28 L 891.74 290.87 L 892.65 307.33 L 893.56 314.48 L 894.47 296.68 L 895.38 300.06 L 896.29 306.66 L 897.20 304.36 L 898.11 297.71 L 899.02 318.21 L 899.93 285.14 L 900.84 319.62 L 901.75 291.99 L 902.66 317.65 L 903.57 278.49 L 904.48 326.17 L 905.39 291.03 L 906.30 307.28 L 907.21 297.71 L 908.12 305.24 L 909.03 297.38 L 909.94 306.22 L 910.85 303.88 L 911.76 289.65 L 912.67 311.23 L 913.58 289.22 L 914.49 309.91 L 915.40 299.13 L 916.31 303.27 L 917.22 293.00 L 918.13 304.74 L 919.04 301.29 L 919.95 292.00 L 920.86 312.76 L 921.77 286.79 L 922.68 305.01 L 923.59 297.71 L 924.50 293.01 L 925.41 299.59 L 926.32 309.58 L 927.23 287.48 L 928.14 297.07 L 929.05 301.35 L 929.96 300.93 L 930.87 300.60 L 931.78 279.40 L 932.69 315.89 L 933.60 288.18 L 934.51 295.70 L 935.42 295.40 L 936.33 300.83 L 937.24 291.05 L 938.15 302.16 L 939.06 294.16 L 939.97 305.25 L 940.88 281.54 L 941.79 302.24 L 942.70 291.99 L 943.61 294.39 L 944.52 290.20 L 945.43 300.96 L 946.34 294.21 L 947.25 284.34 L 948.16 303.87 L 949.07 293.19 L 949.98 297.20 L 950.89 281.45 L 951.80 297.06 L 952.71 298.59 L 953.62 283.65 L 954.53 306.43 L 955.44 282.30 L 956.35 290.93 L 957.26 296.79 L 958.17 285.15 L 959.08 294.36 L 959.99 291.17 L 960.90 285.54 L 961.81 303.01 L 962.72 285.01 L 963.63 290.49 L 964.54 294.97 L 965.45 282.45 L 966.36 292.67 L 967.27 289.08 L 968.18 290.99 L 969.09 293.60 L 970.00 286.43" fill="none" stroke="#ff7f0e" stroke-width="1.5" opacity="0.7"/>
  <!-- legend -->
  <g transform="translate(70, 60)">
    <line x1="0" y1="0" x2="20" y2="0" stroke="#888" stroke-width="1.5" stroke-dasharray="4 3"/>
    <text x="25" y="4" font-size="11">target</text>
    <line x1="0" y1="14" x2="20" y2="14" stroke="#1f77b4" stroke-width="2"/>
    <text x="25" y="18" font-size="11">feedback</text>
    <line x1="0" y1="28" x2="20" y2="28" stroke="#ff7f0e" stroke-width="1.5"/>
    <text x="25" y="32" font-size="11">output</text>
  </g>
  <text x="515" y="470" text-anchor="middle" font-size="11">time (s)</text>
</svg>