<?xml version="1.0" encoding="UTF-8"?>
<svg xmlns="http://www.w3.org/2000/svg" viewBox="0 0 1000 480" font-family="monospace" font-size="12">
  <rect width="1000" height="480" fill="#ffffff"/>
  <text x="60" y="20" font-size="14" font-weight="bold">cascade_position - B: 大惯量小阻尼</text>
  <text x="60" y="36" font-size="11" fill="#555">参数: speedKp=1.038 speedKi=0 speedKd=0 posKp=4.883 posKi=0 posKd=0</text>
  <text x="970" y="20" text-anchor="end" font-size="11" fill="#555">超调=3.48% | 稳态误差=0 | 振荡=0.31%</text>
  <!-- axes -->
  <line x1="60" y1="50" x2="60" y2="430" stroke="#333"/>
  <line x1="60" y1="430" x2="970" y2="430" stroke="#333"/>
  <!-- grid -->
  <line x1="60" y1="50" x2="970" y2="50" stroke="#eee"/><text x="55" y="54" text-anchor="end" font-size="10" fill="#555">8.48</text><line x1="60" y1="145" x2="970" y2="145" stroke="#eee"/><text x="55" y="149" text-anchor="end" font-size="10" fill="#555">5.81</text><line x1="60" y1="240" x2="970" y2="240" stroke="#eee"/><text x="55" y="244" text-anchor="end" font-size="10" fill="#555">3.14</text><line x1="60" y1="335" x2="970" y2="335" stroke="#eee"/><text x="55" y="339" text-anchor="end" font-size="10" fill="#555">0.47</text><line x1="60" y1="430" x2="970" y2="430" stroke="#eee"/><text x="55" y="434" text-anchor="end" font-size="10" fill="#555">-2.20</text>
  <text x="60" y="445" text-anchor="middle" font-size="10" fill="#555">0.00</text><text x="242" y="445" text-anchor="middle" font-size="10" fill="#555">1.00</text><text x="424" y="445" text-anchor="middle" font-size="10" fill="#555">2.00</text><text x="606" y="445" text-anchor="middle" font-size="10" fill="#555">3.00</text><text x="788" y="445" text-anchor="middle" font-size="10" fill="#555">4.00</text><text x="970" y="445" text-anchor="middle" font-size="10" fill="#555">5.00</text>
  <!-- target (dashed gray) -->
  <path d="M 60.00 351.69 L 61.82 298.35 L 63.64 298.35 L 65.46 298.35 L 67.28 298.35 L 69.10 298.35 L 70.92 298.35 L 72.74 298.35 L 74.56 298.35 L 76.38 298.35 L 78.20 298.35 L 80.02 298.35 L 81.84 298.35 L 83.66 298.35 L 85.48 298.35 L 87.30 298.35 L 89.12 298.35 L 90.94 298.35 L 92.76 298.35 L 94.58 298.35 L 96.40 298.35 L 98.22 298.35 L 100.04 298.35 L 101.86 298.35 L 103.68 298.35 L 105.50 298.35 L 107.32 298.35 L 109.14 298.35 L 110.96 298.35 L 112.78 298.35 L 114.60 298.35 L 116.42 298.35 L 118.24 298.35 L 120.06 298.35 L 121.88 298.35 L 123.70 298.35 L 125.52 298.35 L 127.34 298.35 L 129.16 298.35 L 130.98 298.35 L 132.80 298.35 L 134.62 298.35 L 136.44 298.35 L 138.26 298.35 L 140.08 298.35 L 141.90 298.35 L 143.72 298.35 L 145.54 298.35 L 147.36 298.35 L 149.18 298.35 L 151.00 298.35 L 152.82 298.35 L 154.64 298.35 L 156.46 298.35 L 158.28 298.35 L 160.10 298.35 L 161.92 298.35 L 163.74 298.35 L 165.56 298.35 L 167.38 298.35 L 169.20 298.35 L 171.02 298.35 L 172.84 298.35 L 174.66 298.35 L 176.48 298.35 L 178.30 298.35 L 180.12 298.35 L 181.94 298.35 L 183.76 298.35 L 185.58 298.35 L 187.40 298.35 L 189.22 298.35 L 191.04 298.35 L 192.86 298.35 L 194.68 298.35 L 196.50 298.35 L 198.32 298.35 L 200.14 298.35 L 201.96 298.35 L 203.78 298.35 L 205.60 298.35 L 207.42 298.35 L 209.24 298.35 L 211.06 298.35 L 212.88 298.35 L 214.70 298.35 L 216.52 298.35 L 218.34 298.35 L 220.16 298.35 L 221.98 298.35 L 223.80 298.35 L 225.62 298.35 L 227.44 298.35 L 229.26 298.35 L 231.08 298.35 L 232.90 298.35 L 234.72 298.35 L 236.54 298.35 L 238.36 298.35 L 240.18 298.35 L 242.00 298.35 L 243.82 298.35 L 245.64 298.35 L 247.46 298.35 L 249.28 298.35 L 251.10 298.35 L 252.92 298.35 L 254.74 298.35 L 256.56 298.35 L 258.38 298.35 L 260.20 298.35 L 262.02 298.35 L 263.84 298.35 L 265.66 298.35 L 267.48 298.35 L 269.30 298.35 L 271.12 298.35 L 272.94 298.35 L 274.76 298.35 L 276.58 298.35 L 278.40 298.35 L 280.22 298.35 L 282.04 298.35 L 283.86 298.35 L 285.68 298.35 L 287.50 298.35 L 289.32 298.35 L 291.14 298.35 L 292.96 298.35 L 294.78 298.35 L 296.60 298.35 L 298.42 298.35 L 300.24 298.35 L 302.06 298.35 L 303.88 298.35 L 305.70 298.35 L 307.52 298.35 L 309.34 298.35 L 311.16 298.35 L 312.98 298.35 L 314.80 298.35 L 316.62 298.35 L 318.44 298.35 L 320.26 298.35 L 322.08 298.35 L 323.90 298.35 L 325.72 298.35 L 327.54 298.35 L 329.36 298.35 L 331.18 298.35 L 333.00 298.35 L 334.82 298.35 L 336.64 298.35 L 338.46 298.35 L 340.28 298.35 L 342.10 298.35 L 343.92 298.35 L 345.74 298.35 L 347.56 298.35 L 349.38 298.35 L 351.20 298.35 L 353.02 298.35 L 354.84 298.35 L 356.66 298.35 L 358.48 298.35 L 360.30 298.35 L 362.12 298.35 L 363.94 298.35 L 365.76 298.35 L 367.58 298.35 L 369.40 298.35 L 371.22 298.35 L 373.04 298.35 L 374.86 298.35 L 376.68 298.35 L 378.50 298.35 L 380.32 298.35 L 382.14 298.35 L 383.96 298.35 L 385.78 298.35 L 387.60 298.35 L 389.42 298.35 L 391.24 298.35 L 393.06 298.35 L 394.88 298.35 L 396.70 298.35 L 398.52 298.35 L 400.34 298.35 L 402.16 298.35 L 403.98 298.35 L 405.80 298.35 L 407.62 298.35 L 409.44 298.35 L 411.26 298.35 L 413.08 298.35 L 414.90 298.35 L 416.72 298.35 L 418.54 298.35 L 420.36 298.35 L 422.18 298.35 L 424.00 298.35 L 425.82 298.35 L 427.64 298.35 L 429.46 298.35 L 431.28 298.35 L 433.10 298.35 L 434.92 298.35 L 436.74 298.35 L 438.56 298.35 L 440.38 298.35 L 442.20 298.35 L 444.02 298.35 L 445.84 298.35 L 447.66 298.35 L 449.48 298.35 L 451.30 298.35 L 453.12 298.35 L 454.94 298.35 L 456.76 298.35 L 458.58 298.35 L 460.40 298.35 L 462.22 298.35 L 464.04 298.35 L 465.86 298.35 L 467.68 298.35 L 469.50 298.35 L 471.32 298.35 L 473.14 298.35 L 474.96 298.35 L 476.78 298.35 L 478.60 298.35 L 480.42 298.35 L 482.24 298.35 L 484.06 298.35 L 485.88 298.35 L 487.70 298.35 L 489.52 298.35 L 491.34 298.35 L 493.16 298.35 L 494.98 298.35 L 496.80 298.35 L 498.62 298.35 L 500.44 298.35 L 502.26 298.35 L 504.08 298.35 L 505.90 298.35 L 507.72 298.35 L 509.54 298.35 L 511.36 298.35 L 513.18 298.35 L 515.00 298.35 L 516.82 298.35 L 518.64 298.35 L 520.46 298.35 L 522.28 298.35 L 524.10 298.35 L 525.92 298.35 L 527.74 298.35 L 529.56 298.35 L 531.38 298.35 L 533.20 298.35 L 535.02 298.35 L 536.84 298.35 L 538.66 298.35 L 540.48 298.35 L 542.30 298.35 L 544.12 298.35 L 545.94 298.35 L 547.76 298.35 L 549.58 298.35 L 551.40 298.35 L 553.22 298.35 L 555.04 298.35 L 556.86 298.35 L 558.68 298.35 L 560.50 298.35 L 562.32 298.35 L 564.14 298.35 L 565.96 298.35 L 567.78 298.35 L 569.60 298.35 L 571.42 298.35 L 573.24 298.35 L 575.06 298.35 L 576.88 298.35 L 578.70 298.35 L 580.52 298.35 L 582.34 298.35 L 584.16 298.35 L 585.98 298.35 L 587.80 298.35 L 589.62 298.35 L 591.44 298.35 L 593.26 298.35 L 595.08 298.35 L 596.90 298.35 L 598.72 298.35 L 600.54 298.35 L 602.36 298.35 L 604.18 298.35 L 606.00 298.35 L 607.82 298.35 L 609.64 298.35 L 611.46 298.35 L 613.28 298.35 L 615.10 298.35 L 616.92 298.35 L 618.74 298.35 L 620.56 298.35 L 622.38 298.35 L 624.20 298.35 L 626.02 298.35 L 627.84 298.35 L 629.66 298.35 L 631.48 298.35 L 633.30 298.35 L 635.12 298.35 L 636.94 298.35 L 638.76 298.35 L 640.58 298.35 L 642.40 298.35 L 644.22 298.35 L 646.04 298.35 L 647.86 298.35 L 649.68 298.35 L 651.50 298.35 L 653.32 298.35 L 655.14 298.35 L 656.96 298.35 L 658.78 298.35 L 660.60 298.35 L 662.42 298.35 L 664.24 298.35 L 666.06 298.35 L 667.88 298.35 L 669.70 298.35 L 671.52 298.35 L 673.34 298.35 L 675.16 298.35 L 676.98 298.35 L 678.80 298.35 L 680.62 298.35 L 682.44 298.35 L 684.26 298.35 L 686.08 298.35 L 687.90 298.35 L 689.72 298.35 L 691.54 298.35 L 693.36 298.35 L 695.18 298.35 L 697.00 298.35 L 698.82 298.35 L 700.64 298.35 L 702.46 298.35 L 704.28 298.35 L 706.10 298.35 L 707.92 298.35 L 709.74 298.35 L 711.56 298.35 L 713.38 298.35 L 715.20 298.35 L 717.02 298.35 L 718.84 298.35 L 720.66 298.35 L 722.48 298.35 L 724.30 298.35 L 726.12 298.35 L 727.94 298.35 L 729.76 298.35 L 731.58 298.35 L 733.40 298.35 L 735.22 298.35 L 737.04 298.35 L 738.86 298.35 L 740.68 298.35 L 742.50 298.35 L 744.32 298.35 L 746.14 298.35 L 747.96 298.35 L 749.78 298.35 L 751.60 298.35 L 753.42 298.35 L 755.24 298.35 L 757.06 298.35 L 758.88 298.35 L 760.70 298.35 L 762.52 298.35 L 764.34 298.35 L 766.16 298.35 L 767.98 298.35 L 769.80 298.35 L 771.62 298.35 L 773.44 298.35 L 775.26 298.35 L 777.08 298.35 L 778.90 298.35 L 780.72 298.35 L 782.54 298.35 L 784.36 298.35 L 786.18 298.35 L 788.00 298.35 L 789.82 298.35 L 791.64 298.35 L 793.46 298.35 L 795.28 298.35 L 797.10 298.35 L 798.92 298.35 L 800.74 298.35 L 802.56 298.35 L 804.38 298.35 L 806.20 298.35 L 808.02 298.35 L 809.84 298.35 L 811.66 298.35 L 813.48 298.35 L 815.30 298.35 L 817.12 298.35 L 818.94 298.35 L 820.76 298.35 L 822.58 298.35 L 824.40 298.35 L 826.22 298.35 L 828.04 298.35 L 829.86 298.35 L 831.68 298.35 L 833.50 298.35 L 835.32 298.35 L 837.14 298.35 L 838.96 298.35 L 840.78 298.35 L 842.60 298.35 L 844.42 298.35 L 846.24 298.35 L 848.06 298.35 L 849.88 298.35 L 851.70 298.35 L 853.52 298.35 L 855.34 298.35 L 857.16 298.35 L 858.98 298.35 L 860.80 298.35 L 862.62 298.35 L 864.44 298.35 L 866.26 298.35 L 868.08 298.35 L 869.90 298.35 L 871.72 298.35 L 873.54 298.35 L 875.36 298.35 L 877.18 298.35 L 879.00 298.35 L 880.82 298.35 L 882.64 298.35 L 884.46 298.35 L 886.28 298.35 L 888.10 298.35 L 889.92 298.35 L 891.74 298.35 L 893.56 298.35 L 895.38 298.35 L 897.20 298.35 L 899.02 298.35 L 900.84 298.35 L 902.66 298.35 L 904.48 298.35 L 906.30 298.35 L 908.12 298.35 L 909.94 298.35 L 911.76 298.35 L 913.58 298.35 L 915.40 298.35 L 917.22 298.35 L 919.04 298.35 L 920.86 298.35 L 922.68 298.35 L 924.50 298.35 L 926.32 298.35 L 928.14 298.35 L 929.96 298.35 L 931.78 298.35 L 933.60 298.35 L 935.42 298.35 L 937.24 298.35 L 939.06 298.35 L 940.88 298.35 L 942.70 298.35 L 944.52 298.35 L 946.34 298.35 L 948.16 298.35 L 949.98 298.35 L 951.80 298.35 L 953.62 298.35 L 955.44 298.35 L 957.26 298.35 L 959.08 298.35 L 960.90 298.35 L 962.72 298.35 L 964.54 298.35 L 966.36 298.35 L 968.18 298.35 L 970.00 298.35" fill="none" stroke="#888" stroke-width="1.5" stroke-dasharray="4 3"/>
  <!-- feedback (solid blue) -->
  <path d="M 60.00 351.69 L 61.82 351.64 L 63.64 351.43 L 65.46 351.07 L 67.28 350.43 L 69.10 349.75 L 70.92 348.81 L 72.74 347.82 L 74.56 346.72 L 76.38 345.56 L 78.20 344.15 L 80.02 342.86 L 81.84 341.44 L 83.66 339.95 L 85.48 338.48 L 87.30 336.96 L 89.12 335.41 L 90.94 333.86 L 92.76 332.31 L 94.58 330.65 L 96.40 329.17 L 98.22 327.68 L 100.04 326.21 L 101.86 324.71 L 103.68 323.25 L 105.50 321.80 L 107.32 320.44 L 109.14 319.03 L 110.96 317.83 L 112.78 316.53 L 114.60 315.25 L 116.42 314.05 L 118.24 312.91 L 120.06 311.86 L 121.88 310.75 L 123.70 309.72 L 125.52 308.85 L 127.34 307.92 L 129.16 307.08 L 130.98 306.18 L 132.80 305.45 L 134.62 304.64 L 136.44 304.04 L 138.26 303.28 L 140.08 302.71 L 141.90 302.17 L 143.72 301.57 L 145.54 301.05 L 147.36 300.57 L 149.18 300.23 L 151.00 299.69 L 152.82 299.44 L 154.64 299.08 L 156.46 298.73 L 158.28 298.35 L 160.10 298.17 L 161.92 297.91 L 163.74 297.75 L 165.56 297.59 L 167.38 297.32 L 169.20 297.20 L 171.02 297.06 L 172.84 296.92 L 174.66 296.88 L 176.48 296.77 L 178.30 296.67 L 180.12 296.70 L 181.94 296.60 L 183.76 296.53 L 185.58 296.54 L 187.40 296.53 L 189.22 296.57 L 191.04 296.55 L 192.86 296.50 L 194.68 296.59 L 196.50 296.62 L 198.32 296.69 L 200.14 296.60 L 201.96 296.63 L 203.78 296.66 L 205.60 296.73 L 207.42 296.79 L 209.24 296.87 L 211.06 296.92 L 212.88 296.95 L 214.70 297.00 L 216.52 297.04 L 218.34 297.12 L 220.16 297.13 L 221.98 297.22 L 223.80 297.29 L 225.62 297.29 L 227.44 297.34 L 229.26 297.36 L 231.08 297.43 L 232.90 297.52 L 234.72 297.48 L 236.54 297.65 L 238.36 297.74 L 240.18 297.75 L 242.00 297.75 L 243.82 297.82 L 245.64 297.84 L 247.46 297.92 L 249.28 297.90 L 251.10 297.96 L 252.92 297.91 L 254.74 297.98 L 256.56 298.03 L 258.38 298.05 L 260.20 298.14 L 262.02 298.15 L 263.84 298.08 L 265.66 298.15 L 267.48 298.19 L 269.30 298.23 L 271.12 298.28 L 272.94 298.25 L 274.76 298.30 L 276.58 298.29 L 278.40 298.28 L 280.22 298.28 L 282.04 298.34 L 283.86 298.35 L 285.68 298.37 L 287.50 298.39 L 289.32 298.37 L 291.14 298.43 L 292.96 298.41 L 294.78 298.35 L 296.60 298.43 L 298.42 298.35 L 300.24 298.45 L 302.06 298.42 L 303.88 298.42 L 305.70 298.39 L 307.52 298.47 L 309.34 298.43 L 311.16 298.43 L 312.98 298.40 L 314.80 298.38 L 316.62 298.36 L 318.44 298.43 L 320.26 298.44 L 322.08 298.39 L 323.90 298.43 L 325.72 298.38 L 327.54 298.46 L 329.36 298.45 L 331.18 298.39 L 333.00 298.36 L 334.82 298.34 L 336.64 298.38 L 338.46 298.43 L 340.28 298.41 L 342.10 298.36 L 343.92 298.39 L 345.74 298.43 L 347.56 298.38 L 349.38 298.44 L 351.20 298.37 L 353.02 298.34 L 354.84 298.44 L 356.66 298.41 L 358.48 298.35 L 360.30 298.38 L 362.12 298.34 L 363.94 298.41 L 365.76 298.30 L 367.58 298.34 L 369.40 298.33 L 371.22 298.40 L 373.04 298.37 L 374.86 298.43 L 376.68 298.34 L 378.50 298.36 L 380.32 298.36 L 382.14 298.35 L 383.96 298.37 L 385.78 298.37 L 387.60 298.39 L 389.42 298.35 L 391.24 298.38 L 393.06 298.31 L 394.88 298.34 L 396.70 298.37 L 398.52 298.41 L 400.34 298.36 L 402.16 298.35 L 403.98 298.33 L 405.80 298.32 L 407.62 298.34 L 409.44 298.36 L 411.26 298.40 L 413.08 298.36 L 414.90 298.37 L 416.72 298.41 L 418.54 298.31 L 420.36 298.32 L 422.18 298.36 L 424.00 298.31 L 425.82 298.34 L 427.64 298.35 L 429.46 298.40 L 431.28 298.37 L 433.10 298.41 L 434.92 298.40 L 436.74 298.33 L 438.56 298.41 L 440.38 298.38 L 442.20 298.33 L 444.02 298.40 L 445.84 298.32 L 447.66 298.31 L 449.48 298.37 L 451.30 298.40 L 453.12 298.39 L 454.94 298.39 L 456.76 298.34 L 458.58 298.33 L 460.40 298.34 L 462.22 298.38 L 464.04 298.39 L 465.86 298.40 L 467.68 298.32 L 469.50 298.35 L 471.32 298.36 L 473.14 298.35 L 474.96 298.33 L 476.78 298.39 L 478.60 298.41 L 480.42 298.39 L 482.24 298.30 L 484.06 298.38 L 485.88 298.36 L 487.70 298.26 L 489.52 298.37 L 491.34 298.44 L 493.16 298.42 L 494.98 298.35 L 496.80 298.29 L 498.62 298.33 L 500.44 298.35 L 502.26 298.30 L 504.08 298.31 L 505.90 298.31 L 507.72 298.34 L 509.54 298.26 L 511.36 298.27 L 513.18 298.37 L 515.00 298.36 L 516.82 298.33 L 518.64 298.32 L 520.46 298.29 L 522.28 298.33 L 524.10 298.36 L 525.92 298.34 L 527.74 298.43 L 529.56 298.32 L 531.38 298.38 L 533.20 298.36 L 535.02 298.30 L 536.84 298.34 L 538.66 298.29 L 540.48 298.26 L 542.30 298.29 L 544.12 298.32 L 545.94 298.28 L 547.76 298.35 L 549.58 298.39 L 551.40 298.34 L 553.22 298.32 L 555.04 298.36 L 556.86 298.35 L 558.68 298.34 L 560.50 298.39 L 562.32 298.41 L 564.14 298.30 L 565.96 298.34 L 567.78 298.33 L 569.60 298.34 L 571.42 298.36 L 573.24 298.44 L 575.06 298.39 L 576.88 298.38 L 578.70 298.31 L 580.52 298.38 L 582.34 298.37 L 584.16 298.36 L 585.98 298.37 L 587.80 298.31 L 589.62 298.36 L 591.44 298.28 L 593.26 298.35 L 595.08 298.40 L 596.90 298.36 L 598.72 298.35 L 600.54 298.40 L 602.36 298.36 L 604.18 298.35 L 606.00 298.35 L 607.82 298.35 L 609.64 298.34 L 611.46 298.31 L 613.28 298.31 L 615.10 298.34 L 616.92 298.35 L 618.74 298.42 L 620.56 298.38 L 622.38 298.38 L 624.20 298.41 L 626.02 298.34 L 627.84 298.33 L 629.66 298.34 L 631.48 298.31 L 633.30 298.31 L 635.12 298.32 L 636.94 298.31 L 638.76 298.28 L 640.58 298.38 L 642.40 298.30 L 644.22 298.30 L 646.04 298.32 L 647.86 298.35 L 649.68 298.39 L 651.50 298.38 L 653.32 298.34 L 655.14 298.35 L 656.96 298.34 L 658.78 298.35 L 660.60 298.37 L 662.42 298.29 L 664.24 298.38 L 666.06 298.31 L 667.88 298.41 L 669.70 298.29 L 671.52 298.35 L 673.34 298.43 L 675.16 298.35 L 676.98 298.34 L 678.80 298.33 L 680.62 298.44 L 682.44 298.38 L 684.26 298.28 L 686.08 298.38 L 687.90 298.33 L 689.72 298.39 L 691.54 298.35 L 693.36 298.35 L 695.18 298.38 L 697.00 298.29 L 698.82 298.36 L 700.64 298.32 L 702.46 298.38 L 704.28 298.34 L 706.10 298.38 L 707.92 298.37 L 709.74 298.36 L 711.56 298.37 L 713.38 298.41 L 715.20 298.29 L 717.02 298.40 L 718.84 298.33 L 720.66 298.36 L 722.48 298.31 L 724.30 298.41 L 726.12 298.36 L 727.94 298.32 L 729.76 298.37 L 731.58 298.36 L 733.40 298.37 L 735.22 298.33 L 737.04 298.31 L 738.86 298.36 L 740.68 298.32 L 742.50 298.45 L 744.32 298.28 L 746.14 298.37 L 747.96 298.38 L 749.78 298.33 L 751.60 298.37 L 753.42 298.36 L 755.24 298.38 L 757.06 298.36 L 758.88 298.36 L 760.70 298.38 L 762.52 298.36 L 764.34 298.39 L 766.16 298.33 L 767.98 298.43 L 769.80 298.40 L 771.62 298.39 L 773.44 298.33 L 775.26 298.41 L 777.08 298.36 L 778.90 298.29 L 780.72 298.45 L 782.54 298.35 L 784.36 298.38 L 786.18 298.35 L 788.00 298.34 L 789.82 298.32 L 791.64 298.36 L 793.46 298.37 L 795.28 298.34 L 797.10 298.33 L 798.92 298.34 L 800.74 298.37 L 802.56 298.36 L 804.38 298.38 L 806.20 298.30 L 808.02 298.35 L 809.84 298.37 L 811.66 298.32 L 813.48 298.36 L 815.30 298.36 L 817.12 298.35 L 818.94 298.33 L 820.76 298.40 L 822.58 298.35 L 824.40 298.33 L 826.22 298.34 L 828.04 298.30 L 829.86 298.29 L 831.68 298.35 L 833.50 298.31 L 835.32 298.34 L 837.14 298.33 L 838.96 298.36 L 840.78 298.41 L 842.60 298.35 L 844.42 298.36 L 846.24 298.31 L 848.06 298.34 L 849.88 298.35 L 851.70 298.37 L 853.52 298.34 L 855.34 298.41 L 857.16 298.33 L 858.98 298.37 L 860.80 298.28 L 862.62 298.36 L 864.44 298.32 L 866.26 298.33 L 868.08 298.28 L 869.90 298.36 L 871.72 298.33 L 873.54 298.27 L 875.36 298.34 L 877.18 298.32 L 879.00 298.33 L 880.82 298.29 L 882.64 298.34 L 884.46 298.34 L 886.28 298.43 L 888.10 298.35 L 889.92 298.35 L 891.74 298.33 L 893.56 298.33 L 895.38 298.34 L 897.20 298.35 L 899.02 298.35 L 900.84 298.44 L 902.66 298.36 L 904.48 298.37 L 906.30 298.31 L 908.12 298.29 L 909.94 298.37 L 911.76 298.36 L 913.58 298.34 L 915.40 298.28 L 917.22 298.32 L 919.04 298.43 L 920.86 298.29 L 922.68 298.29 L 924.50 298.34 L 926.32 298.35 L 928.14 298.31 L 929.96 298.34 L 931.78 298.35 L 933.60 298.38 L 935.42 298.34 L 937.24 298.34 L 939.06 298.36 L 940.88 298.31 L 942.70 298.42 L 944.52 298.41 L 946.34 298.40 L 948.16 298.36 L 949.98 298.35 L 951.80 298.35 L 953.62 298.38 L 955.44 298.35 L 957.26 298.39 L 959.08 298.33 L 960.90 298.36 L 962.72 298.42 L 964.54 298.35 L 966.36 298.29 L 968.18 298.36 L 970.00 298.35" fill="none" stroke="#1f77b4" stroke-width="2"/>
  <!-- output (solid orange, optional) -->
  <path d="M 60.00 351.79 L 61.82 81.67 L 63.64 105.22 L 65.46 126.98 L 67.28 148.75 L 69.10 168.74 L 70.92 187.72 L 72.74 205.67 L 74.56 222.81 L 76.38 238.30 L 78.20 253.97 L 80.02 267.48 L 81.84 280.69 L 83.66 292.75 L 85.48 303.95 L 87.30 314.47 L 89.12 324.17 L 90.94 332.88 L 92.76 341.27 L 94.58 349.10 L 96.40 355.22 L 98.22 361.32 L 100.04 366.77 L 101.86 372.19 L 103.68 376.50 L 105.50 380.47 L 107.32 383.80 L 109.14 387.19 L 110.96 389.03 L 112.78 391.66 L 114.60 393.66 L 116.42 395.44 L 118.24 396.28 L 120.06 396.92 L 121.88 398.15 L 123.70 398.33 L 125.52 398.01 L 127.34 398.23 L 129.16 398.03 L 130.98 397.77 L 132.80 396.94 L 134.62 396.61 L 136.44 395.45 L 138.26 395.04 L 140.08 393.88 L 141.90 392.47 L 143.72 391.75 L 145.54 390.57 L 147.36 389.34 L 149.18 387.51 L 151.00 386.91 L 152.82 384.97 L 154.64 383.74 L 156.46 382.41 L 158.28 381.39 L 160.10 380.29 L 161.92 378.60 L 163.74 377.06 L 165.56 375.50 L 167.38 374.79 L 169.20 373.22 L 171.02 371.94 L 172.84 371.10 L 174.66 369.70 L 176.48 368.22 L 178.30 367.55 L 180.12 365.85 L 181.94 365.36 L 183.76 364.42 L 185.58 363.20 L 187.40 362.46 L 189.22 361.20 L 191.04 360.90 L 192.86 360.15 L 194.68 358.96 L 196.50 358.28 L 198.32 357.64 L 200.14 357.46 L 201.96 356.83 L 203.78 356.12 L 205.60 355.54 L 207.42 354.90 L 209.24 354.16 L 211.06 353.85 L 212.88 353.73 L 214.70 353.31 L 216.52 352.92 L 218.34 352.44 L 220.16 352.54 L 221.98 351.91 L 223.80 351.76 L 225.62 351.70 L 227.44 351.36 L 229.26 351.24 L 231.08 350.76 L 232.90 350.73 L 234.72 351.03 L 236.54 350.50 L 238.36 349.83 L 240.18 350.01 L 242.00 350.36 L 243.82 349.95 L 245.64 349.93 L 247.46 350.01 L 249.28 350.30 L 251.10 350.01 L 252.92 350.35 L 254.74 350.05 L 256.56 350.23 L 258.38 350.46 L 260.20 349.93 L 262.02 349.73 L 263.84 350.68 L 265.66 350.35 L 267.48 350.15 L 269.30 350.05 L 271.12 350.16 L 272.94 350.36 L 274.76 350.32 L 276.58 350.43 L 278.40 350.80 L 280.22 350.48 L 282.04 350.33 L 283.86 350.85 L 285.68 350.44 L 287.50 350.72 L 289.32 350.80 L 291.14 350.59 L 292.96 350.90 L 294.78 351.21 L 296.60 350.67 L 298.42 350.96 L 300.24 350.69 L 302.06 351.26 L 303.88 351.09 L 305.70 351.24 L 307.52 350.79 L 309.34 351.13 L 311.16 351.42 L 312.98 351.31 L 314.80 351.42 L 316.62 351.94 L 318.44 351.11 L 320.26 351.25 L 322.08 351.66 L 323.90 351.33 L 325.72 351.66 L 327.54 351.35 L 329.36 351.32 L 331.18 351.72 L 333.00 352.02 L 334.82 352.07 L 336.64 351.82 L 338.46 351.19 L 340.28 351.34 L 342.10 351.64 L 343.92 351.72 L 345.74 351.52 L 347.56 351.66 L 349.38 351.43 L 351.20 351.94 L 353.02 352.09 L 354.84 351.43 L 356.66 351.26 L 358.48 351.80 L 360.30 351.72 L 362.12 351.99 L 363.94 351.59 L 365.76 351.94 L 367.58 351.86 L 369.40 351.92 L 371.22 351.51 L 373.04 351.63 L 374.86 351.69 L 376.68 351.88 L 378.50 351.69 L 380.32 351.68 L 382.14 351.89 L 383.96 351.95 L 385.78 351.65 L 387.60 351.55 L 389.42 351.81 L 391.24 351.51 L 393.06 351.95 L 394.88 351.94 L 396.70 351.54 L 398.52 351.34 L 400.34 351.76 L 402.16 351.82 L 403.98 352.11 L 405.80 351.71 L 407.62 351.45 L 409.44 351.73 L 411.26 351.58 L 413.08 351.39 L 414.90 351.63 L 416.72 351.41 L 418.54 351.93 L 420.36 352.05 L 422.18 351.61 L 424.00 352.02 L 425.82 351.91 L 427.64 351.77 L 429.46 351.85 L 431.28 351.60 L 433.10 351.48 L 434.92 351.51 L 436.74 351.60 L 438.56 351.29 L 440.38 351.72 L 442.20 351.86 L 444.02 351.54 L 445.84 352.03 L 447.66 352.03 L 449.48 351.50 L 451.30 351.42 L 453.12 351.72 L 454.94 351.58 L 456.76 351.71 L 458.58 351.92 L 460.40 351.77 L 462.22 351.68 L 464.04 351.25 L 465.86 351.34 L 467.68 352.09 L 469.50 351.80 L 471.32 351.52 L 473.14 351.82 L 474.96 351.89 L 476.78 351.79 L 478.60 351.28 L 480.42 351.43 L 482.24 352.33 L 484.06 351.78 L 485.88 351.97 L 487.70 352.07 L 489.52 351.38 L 491.34 351.14 L 493.16 351.38 L 494.98 351.63 L 496.80 351.84 L 498.62 351.77 L 500.44 351.90 L 502.26 352.05 L 504.08 351.76 L 505.90 351.98 L 507.72 351.69 L 509.54 352.09 L 511.36 351.97 L 513.18 351.63 L 515.00 351.51 L 516.82 351.61 L 518.64 351.84 L 520.46 351.83 L 522.28 351.44 L 524.10 351.67 L 525.92 351.72 L 527.74 351.20 L 529.56 351.75 L 531.38 351.33 L 533.20 351.76 L 535.02 351.86 L 536.84 351.69 L 538.66 352.01 L 540.48 352.02 L 542.30 352.12 L 544.12 351.70 L 545.94 351.97 L 547.76 351.44 L 549.58 351.43 L 551.40 351.81 L 553.22 351.65 L 555.04 351.56 L 556.86 351.56 L 558.68 351.67 L 560.50 351.30 L 562.32 351.42 L 564.14 351.70 L 565.96 351.72 L 567.78 351.70 L 569.60 351.50 L 571.42 351.56 L 573.24 351.14 L 575.06 351.45 L 576.88 351.49 L 578.70 352.13 L 580.52 351.63 L 582.34 351.80 L 584.16 351.60 L 585.98 351.83 L 587.80 352.08 L 589.62 351.79 L 591.44 352.43 L 593.26 351.67 L 595.08 351.40 L 596.90 351.51 L 598.72 351.56 L 600.54 351.48 L 602.36 351.46 L 604.18 351.92 L 606.00 351.82 L 607.82 351.64 L 609.64 351.84 L 611.46 351.90 L 613.28 351.85 L 615.10 351.66 L 616.92 351.79 L 618.74 351.24 L 620.56 351.41 L 622.38 351.44 L 624.20 351.65 L 626.02 351.86 L 627.84 351.73 L 629.66 351.91 L 631.48 351.79 L 633.30 351.86 L 635.12 352.07 L 636.94 351.87 L 638.76 352.17 L 640.58 351.40 L 642.40 351.71 L 644.22 352.04 L 646.04 351.87 L 647.86 351.62 L 649.68 351.44 L 651.50 351.66 L 653.32 351.81 L 655.14 351.62 L 656.96 351.84 L 658.78 351.72 L 660.60 351.41 L 662.42 351.81 L 664.24 351.74 L 666.06 351.88 L 667.88 351.27 L 669.70 351.74 L 671.52 351.56 L 673.34 351.43 L 675.16 351.96 L 676.98 351.63 L 678.80 351.74 L 680.62 351.35 L 682.44 351.36 L 684.26 352.16 L 686.08 351.51 L 687.90 352.09 L 689.72 351.55 L 691.54 351.50 L 693.36 351.89 L 695.18 351.62 L 697.00 352.01 L 698.82 351.94 L 700.64 351.72 L 702.46 351.33 L 704.28 351.86 L 706.10 351.77 L 707.92 351.56 L 709.74 351.97 L 711.56 351.66 L 713.38 351.37 L 715.20 352.01 L 717.02 351.08 L 718.84 351.85 L 720.66 351.67 L 722.48 351.97 L 724.30 351.61 L 726.12 351.44 L 727.94 352.02 L 729.76 351.59 L 731.58 351.60 L 733.40 351.86 L 735.22 352.04 L 737.04 351.64 L 738.86 351.67 L 740.68 351.52 L 742.50 351.07 L 744.32 352.23 L 746.14 351.42 L 747.96 351.47 L 749.78 351.80 L 751.60 351.44 L 753.42 351.76 L 755.24 351.68 L 757.06 351.65 L 758.88 351.81 L 760.70 351.52 L 762.52 351.64 L 764.34 351.30 L 766.16 351.88 L 767.98 351.03 L 769.80 351.53 L 771.62 351.81 L 773.44 351.82 L 775.26 351.70 L 777.08 351.42 L 778.90 352.05 L 780.72 351.41 L 782.54 351.82 L 784.36 351.61 L 786.18 351.84 L 788.00 351.91 L 789.82 352.00 L 791.64 351.75 L 793.46 351.75 L 795.28 351.73 L 797.10 351.82 L 798.92 351.70 L 800.74 351.54 L 802.56 351.67 L 804.38 351.55 L 806.20 352.23 L 808.02 351.56 L 809.84 351.54 L 811.66 351.72 L 813.48 351.81 L 815.30 351.64 L 817.12 351.82 L 818.94 351.57 L 820.76 351.61 L 822.58 351.79 L 824.40 351.78 L 826.22 352.01 L 828.04 352.15 L 829.86 351.80 L 831.68 351.76 L 833.50 351.67 L 835.32 351.25 L 837.14 351.58 L 838.96 351.57 L 840.78 351.62 L 842.60 351.68 L 844.42 351.41 L 846.24 351.73 L 848.06 351.68 L 849.88 351.79 L 851.70 351.90 L 853.52 351.63 L 855.34 351.26 L 857.16 351.88 L 858.98 351.49 L 860.80 352.00 L 862.62 351.58 L 864.44 351.57 L 866.26 351.83 L 868.08 352.10 L 869.90 351.78 L 871.72 351.78 L 873.54 351.95 L 875.36 351.91 L 877.18 351.62 L 879.00 351.69 L 880.82 352.09 L 882.64 351.84 L 884.46 351.57 L 886.28 350.99 L 888.10 351.37 L 889.92 351.75 L 891.74 351.67 L 893.56 351.70 L 895.38 351.62 L 897.20 351.66 L 899.02 351.62 L 900.84 351.53 L 902.66 351.83 L 904.48 351.62 L 906.30 351.73 L 908.12 351.91 L 909.94 351.74 L 911.76 351.64 L 913.58 351.92 L 915.40 352.15 L 917.22 351.85 L 919.04 351.20 L 920.86 352.15 L 922.68 352.10 L 924.50 351.57 L 926.32 351.78 L 928.14 351.87 L 929.96 351.65 L 931.78 351.71 L 933.60 351.39 L 935.42 351.77 L 937.24 351.66 L 939.06 351.48 L 940.88 351.66 L 942.70 351.30 L 944.52 351.35 L 946.34 351.70 L 948.16 351.42 L 949.98 351.85 L 951.80 352.05 L 953.62 351.80 L 955.44 351.81 L 957.26 351.27 L 959.08 352.09 L 960.90 351.69 L 962.72 351.52 L 964.54 351.64 L 966.36 351.85 L 968.18 351.72 L 970.00 351.72" fill="none" stroke="#ff7f0e" stroke-width="1.5" opacity="0.7"/>
  <!-- legend -->
  <g transform="translate(70, 60)">
    <line x1="0" y1="0" x2="20" y2="0" stroke="#888" stroke-width="1.5" stroke-dasharray="4 3"/>
    <text x="25" y="4" font-size="11">target</text>
    <line x1="0" y1="14" x2="20" y2="14" stroke="#1f77b4" stroke-width="2"/>
    <text x="25" y="18" font-size="11">feedback</text>
    <line x1="0" y1="28" x2="20" y2="28" stroke="#ff7f0e" stroke-width="1.5"/>
    <text x="25" y="32" font-size="11">output</text>
  </g>
  <text x="515" y="470" text-anchor="middle" font-size="11">time (s)</text>
</svg>